<svg id="Calque_1" data-name="Calque 1" xmlns="http://www.w3.org/2000/svg" xmlns:xlink="http://www.w3.org/1999/xlink" viewBox="0 0 101.33 51.7"><defs><clipPath id="clip-path"><rect x="87.3" y="33.5" width="2.3" height="2.4" style="fill:none"/></clipPath></defs><path d="M97,0V.7H94.5V0H92.1V.7H89.6V0H87V.7H84.5V0H82V.7H79.6V0H76.9V.7H74.5V0H72V.7H69.4V0H66.9V.7H64.4V0H62V.7H59.3V0H56.9V.7H54.4V0H51.8V.7H49.3V0H46.8V.7H44.4V0H41.7V.7H39.3V0H36.8V.7H34.4V0H31.7V.7H29.2V0H26.8V.7H24.1V0H21.7V.7H19.2V0H16.8V.7H14.1V0H11.6V.7H9.2V0H6.7V.7H4.1V0H1.6V.7H0V2.3H101.2V.7H99.6V0ZM0,49.4v1.7H1.6v.6H4.3v-.6H6.7v.6H9.2v-.6h2.4v.6h2.7v-.6h2.5v.6h2.4v-.6h2.5v.6h2.6v-.6h2.5v.6h2.4v-.6h2.7v.6h2.5v-.6h2.4v.6h2.5v-.6h2.6v.6h2.5v-.6h2.4v.6h2.7v-.6H52v.6h2.4v-.6h2.5v.6h2.6v-.6H62v.6h2.4v-.6h2.5v.6h2.7v-.6H72v.6h2.5v-.6h2.6v.6h2.5v-.6H82v.6h2.5v-.6h2.6v.6h2.5v-.6h2.5v.6h2.4v-.6h2.7v.6h2.4v-.6h1.6V49.4ZM0,6.9v4.4H7.2V31h5.2V11.3h7.2V6.9ZM23.2,30.8V7h8.9c5.8,0,9.3,2.1,9.3,7.4,0,3.8-1.8,5.8-4.9,6.8l5.3,9.6H36.3l-4.9-9h-3v9Zm5.1-13h3.5c3,0,4.4-.9,4.4-3.3s-1.4-3.2-4.4-3.2H28.3Zm15.9,13L52.5,6.9h4.9l8.4,23.9H60.5l-1.7-5.3h-8L49,30.8Zm7.9-9.1h5.5l-2.7-8.1h-.1Z" style="fill:#003045"/><path d="M69.8,7h0Z" style="fill:#fff"/><path d="M69.8,7H75V30.8H69.8Z" style="fill:#003045"/><path d="M100.8,7h0V7ZM86.1,7H80.9V7Z" style="fill:#fff"/><path d="M100.8,7H96V22.2L86.1,7H80.9V30.8h4.8V15.5L96,30.8h4.8ZM26.5,33.1H26a6.76,6.76,0,0,0-2.3.7A6.39,6.39,0,0,0,21,36.5a7.2,7.2,0,0,0-.9,5A4.5,4.5,0,0,0,22.2,45a5.21,5.21,0,0,0,2.9.9,6.13,6.13,0,0,0,3.1-.9c.7-.4,1.3-1,1.9-1.4-.3.8-.2,1.1.4,1.1h.7c.2-.1.4-.3.4-.4.4-1.3.9-2.6,1.2-4a2.59,2.59,0,0,1,1.6-1.9,1.85,1.85,0,0,1,1.2,0c.4.2.4.7.3,1.1s-.2.7-.3,1.1a22.11,22.11,0,0,0-.5,2.5,1.36,1.36,0,0,0,1.4,1.6h.3a2.51,2.51,0,0,0,1.4-.6,19.2,19.2,0,0,0,1.5-1.4c.4,1,.9,1.8,2.1,1.9h.3a4.33,4.33,0,0,0,2.6-1.1c.6.8,1,1.1,1.6,1.1a3.39,3.39,0,0,0,1.4-.5,5.67,5.67,0,0,0,2.1-2.5,30.54,30.54,0,0,0,1.3-3.2l.2-.2a5.64,5.64,0,0,1,1.2.4c.2.1.2.6.2.9a10.93,10.93,0,0,1-.5,1.7,5.83,5.83,0,0,0-.3,2.3,1.17,1.17,0,0,0,1,1h.5a2.52,2.52,0,0,0,2-.9,3,3,0,0,0,.5-.7l.2.1c.1.9.5,1.5,1.4,1.6h.4a2.5,2.5,0,0,0,1.8-.8A17.38,17.38,0,0,0,61,42.3a2.6,2.6,0,0,0,1.4,1.8,5.34,5.34,0,0,0,2,.5,4.77,4.77,0,0,0,2.9-1.1c.6-.5,1.1-1.1,1.7-1.7.1.4.1.9.2,1.3.2,1.2.2,1.3,1.1,1.3h.4a1.49,1.49,0,0,0,.9-.4c.5-.4.9-.9,1.4-1.3a1.27,1.27,0,0,1,.7-.4h.1a5,5,0,0,0,1.2.2,3,3,0,0,0,1.6-.5,3.09,3.09,0,0,0,1.3,2,3.61,3.61,0,0,0,2,.6,4.45,4.45,0,0,0,2.3-.7,3.81,3.81,0,0,1,2-1,1.23,1.23,0,0,0,.8-.4c.1-.1.3-.1.5-.2v.9a1.18,1.18,0,0,0,.9,1.2,2.92,2.92,0,0,0,.9.2,3,3,0,0,0,1.5-.5,10.54,10.54,0,0,0,2.7-3.9c.4-.7.7-1.4,1.1-2a.55.55,0,0,1,.5-.3.74.74,0,0,1,.6.5c.2.6.5,1.2.7,1.8a1.72,1.72,0,0,1-.5,2.1c-.3.3-.6.7-1,1.1-.3-.2-.4-.4-.6-.4a2.92,2.92,0,0,0-.9-.2h-.2a1.16,1.16,0,0,0-.5.7c0,.4.2.9.5,1a2.92,2.92,0,0,0,.9.2,1.28,1.28,0,0,0,1-.4c.5-.5,1-1,1.5-1.6.1-.2.2-.2.4-.2s.2.1.3.3.3.5.4.7a1.67,1.67,0,0,0,1.7,1.2,2.84,2.84,0,0,0,1.3-.4,8.27,8.27,0,0,0,2.6-3.5c.1-.1-.1-.4-.2-.6-.2.1-.4.1-.5.2a2,2,0,0,0-.4.8,5.2,5.2,0,0,1-1.8,2.1.9.9,0,0,1-.5.1.75.75,0,0,1-.7-.5,10.84,10.84,0,0,1-.8-1.9c-.1-.4-.4-.8,0-1.2l.6-.9a2.29,2.29,0,0,1,1-.7,1.52,1.52,0,0,1,.6.4c.2.1.3.2.5.2a1.19,1.19,0,0,0,.9-.5c.3-.3.1-1-.3-1.3a1.8,1.8,0,0,0-.9-.4,1.61,1.61,0,0,0-.9.3,5.51,5.51,0,0,0-1.7,1.7.76.76,0,0,1-.4.2c-.1,0-.2-.2-.3-.4s-.2-.8-.4-1a2.59,2.59,0,0,0-1.1-.7.9.9,0,0,0-.5-.1,1.69,1.69,0,0,0-1.4.9c-.5.8-.9,1.7-1.4,2.6s-.9,1.6-1.4,2.4a2.26,2.26,0,0,1-1.1.8.37.37,0,0,1-.3.1.75.75,0,0,1-.7-.9l.3-1.2c.4-1.3.8-2.6,1.2-4a.75.75,0,0,0-.1-.5.76.76,0,0,0-.5-.2c-.4,0-.9.2-1,.5-.2.5-.3,1-.5,1.4a15.71,15.71,0,0,1-.9,2.3A2.35,2.35,0,0,1,84,41.9c.1-.3.1-.6.2-.8a3.65,3.65,0,0,0,0-2.9,3.22,3.22,0,0,0-2.9-1.8h-.2A4.55,4.55,0,0,0,77,39.9a2.14,2.14,0,0,1-1.2,1.6,1.42,1.42,0,0,1-.6.2.91.91,0,0,1-.8-.4,7.09,7.09,0,0,0,1.5-3c.2-1.1-.1-2-1.2-2.3a1.09,1.09,0,0,0-.5-.1,2,2,0,0,0-1.9,1.3,4.44,4.44,0,0,0,.2,3.4,1.09,1.09,0,0,1,.1.5c-.5.5-1,1-1.6,1.7a4.17,4.17,0,0,0-.2-.6c-.2-1.6-.4-3.3-.5-4.9,0-.5-.2-.6-.6-.6H69c-.4,0-.4.2-.4.6a7.72,7.72,0,0,1,.2,1.5,9.63,9.63,0,0,1,0,1.7,4.18,4.18,0,0,1-.8,1.2,4.36,4.36,0,0,1-2.7,1.7h-.5a1.9,1.9,0,0,1-1.8-1,2.35,2.35,0,0,1-.2-.8c0-.1.4-.1.6-.2,1.4-.2,2.8-.3,3.7-1.6a2.11,2.11,0,0,0,.1-2.4,3.5,3.5,0,0,0-2.2-.6h-.2a3.69,3.69,0,0,0-3.4,2.3c-.5,1-.6,2.2-1.3,3.1a5.71,5.71,0,0,1-1.4,1.3.6.6,0,0,1-.4.1.81.81,0,0,1-.7-.9,2.92,2.92,0,0,1,.2-.9l1.8-6a7.49,7.49,0,0,0,.4-1.6c0-.1,0-.3-.1-.3a.73.73,0,0,0-.6-.2,1,1,0,0,0-1,.6c-.4,1.2-.7,2.5-1.1,3.7a34.23,34.23,0,0,1-1.3,3.4,13.93,13.93,0,0,1-1.5,1.9.76.76,0,0,1-.4.2c-.2,0-.5-.1-.5-.4a1.1,1.1,0,0,1,0-.8,10.56,10.56,0,0,0,.6-1.9c.2-.7.4-1.5-.2-2a3.77,3.77,0,0,0-1.5-.9c-.5-.2-.6-.3-.5-.9.1-.4.1-.6-.4-.8a.9.9,0,0,0-.5-.1,1.08,1.08,0,0,0-.7.3,1.06,1.06,0,0,0-.2,1.2,2,2,0,0,1,.1,1.1c-.2.6-.5,1.2-.7,1.8a7.32,7.32,0,0,1-1.9,3c-.2.2-.5.5-.8.5a.37.37,0,0,1-.3-.1,1.57,1.57,0,0,1-.1-1.2c.3-1.3.8-2.6,1.2-3.9.1-.4.2-.7.3-1.1l-.2-.1a11.32,11.32,0,0,0-1.3,1,.52.52,0,0,1-.4.2c-.1,0-.2-.1-.3-.2A2.4,2.4,0,0,0,43.5,37a4.25,4.25,0,0,0-1.1.2,5.06,5.06,0,0,0-2.8,3.4,6.14,6.14,0,0,1-2,3,.6.6,0,0,1-.4.1.37.37,0,0,1-.3-.1.62.62,0,0,1-.2-.7c.2-.8.4-1.5.6-2.3a10.79,10.79,0,0,0,.3-1.9,1.49,1.49,0,0,0-.9-1.5.94.94,0,0,0-.9-.4,2.28,2.28,0,0,0-1.1.3c-.3.2-.7.4-1.1.7a2,2,0,0,0,.1-.7c.3-.9.6-1.9.8-2.8a.6.6,0,0,0-.1-.4.76.76,0,0,0-.5-.2,1,1,0,0,0-1,.6c-.4,1.3-.8,2.7-1.2,4a8.63,8.63,0,0,1-2,4.2,5.38,5.38,0,0,1-4,2h-.2a3.46,3.46,0,0,1-2-.7A3.59,3.59,0,0,1,22,41.3a6,6,0,0,1,3.5-6.7,4.25,4.25,0,0,1,1.1-.2,4.25,4.25,0,0,1,1.1.2c.7.3,1,1,.5,1.4a1.21,1.21,0,0,0,0,1.6,1.42,1.42,0,0,0,.6.2,1.23,1.23,0,0,0,1-.5,2.14,2.14,0,0,0,.3-1.9c-.5-1.7-2-2.3-3.6-2.3m46.6,7.2a3,3,0,0,1-.1-2.6.82.82,0,0,1,.6-.4c.2,0,.4.3.5.6a3,3,0,0,1-1,2.4m7,3.1h-.3a1.72,1.72,0,0,1-1.7-2,3.63,3.63,0,0,1,2.1-3.1,1.7,1.7,0,0,1,.7-.1,1.77,1.77,0,0,1,1.7,2c-.1.6-.1,1.1-.9,1.2a.73.73,0,0,0-.6.9c.1.7-.3,1-1,1.1m-17-2.6c-.3,0-.5-.1-.4-.6a2.78,2.78,0,0,1,2.2-2c.5,0,.9.1,1,.6a2.1,2.1,0,0,1-.4,1.1,4.17,4.17,0,0,1-2.4.9M42.6,43.3a1.52,1.52,0,0,1-1.4-1.5v-.3a3.8,3.8,0,0,1,1.5-2.9,1.78,1.78,0,0,1,1-.4,1.85,1.85,0,0,1,.7.2,1.51,1.51,0,0,1,.7,1.4A3.23,3.23,0,0,1,43.3,43c-.1.3-.4.3-.7.3" style="fill:#003045"/><path d="M87.3,34.6Z" style="fill:#fff"/><g style="clip-path:url(#clip-path)"><path d="M88.4,33.5a1.2,1.2,0,0,0-1.1,1.2,1.11,1.11,0,0,0,1.1,1.1c.8,0,1.2-.5,1.2-1.3,0-.6-.5-1-1.2-1" style="fill:#003045"/></g><path d="M8.1,34.8c-.3,0-.4.1-.5.5-.4,1.3-.8,2.5-1.2,3.9-.1-.1-.1-.2-.2-.3a1.93,1.93,0,0,0-1.4-1.1c-.2,0-.4-.1-.6-.1a3.08,3.08,0,0,0-1.3.3A5.12,5.12,0,0,0,.5,43.3,2.12,2.12,0,0,0,2.6,45h.2a3.33,3.33,0,0,0,2.1-.9l.3-.3A1.37,1.37,0,0,0,6.5,45a1.7,1.7,0,0,0,.7-.1,3.56,3.56,0,0,0,1.7-1.3c.2-.2.3-.5.5-.7A2.79,2.79,0,0,0,11.6,45a2.77,2.77,0,0,0,.9.1h.1a4.55,4.55,0,0,0,2-.5,6.13,6.13,0,0,0,2.6-2.9.35.35,0,0,1,.1-.2.22.22,0,0,0-.2-.2.35.35,0,0,1-.2-.1c-.1,0-.2.1-.3.2a11,11,0,0,1-1.4,1.8,3.1,3.1,0,0,1-2.2.9h-.3A1.77,1.77,0,0,1,11,42.3a6.15,6.15,0,0,0,1.4-.1A3.34,3.34,0,0,0,14.9,41a1.82,1.82,0,0,0-.9-3.1,1.7,1.7,0,0,0-.7-.1h-.1a3.93,3.93,0,0,0-3.8,3.3A4.8,4.8,0,0,1,8,43.6a1,1,0,0,1-.7.4c-.1,0-.2.1-.3.1-.3,0-.4-.2-.4-.5a2.92,2.92,0,0,1,.2-.9c.7-2.4,1.5-4.8,2.2-7.3,0-.1.1-.2.1-.4h-1c.1-.2,0-.2,0-.2m3.1,6.5H11a3.09,3.09,0,0,1,1.1-2,1.61,1.61,0,0,1,1.1-.5.6.6,0,0,1,.4.1.72.72,0,0,1,.5.9,1.42,1.42,0,0,1-.8.9,3.7,3.7,0,0,1-2.1.6M3.5,43.6H3.2a1.38,1.38,0,0,1-1-1.5,3.42,3.42,0,0,1,1.2-2.7,1.49,1.49,0,0,1,.9-.4h.3c.8,0,1.3.6,1.3,1.7a3.13,3.13,0,0,1-1.2,2.4,2.08,2.08,0,0,1-1.2.5" style="fill:#003045"/></svg>