<?xml version="1.0" encoding="UTF-8" standalone="no"?>
<svg
   width="32"
   height="32"
   viewBox="0 0 8.4666665 8.4666669"
   version="1.1"
   id="svg3963"
   inkscape:export-filename="\\wsl$\Ubuntu\home\derek\projects\OTrainMap\src\images\line2.png"
   inkscape:export-xdpi="48.000004"
   inkscape:export-ydpi="48.000004"
   inkscape:version="1.2 (dc2aedaf03, 2022-05-15)"
   sodipodi:docname="blueline.svg"
   xmlns:inkscape="http://www.inkscape.org/namespaces/inkscape"
   xmlns:sodipodi="http://sodipodi.sourceforge.net/DTD/sodipodi-0.dtd"
   xmlns="http://www.w3.org/2000/svg"
   xmlns:svg="http://www.w3.org/2000/svg"
   xmlns:rdf="http://www.w3.org/1999/02/22-rdf-syntax-ns#"
   xmlns:cc="http://creativecommons.org/ns#"
   xmlns:dc="http://purl.org/dc/elements/1.1/">
  <defs
     id="defs3957" />
  <sodipodi:namedview
     id="base"
     pagecolor="#ffffff"
     bordercolor="#666666"
     borderopacity="1.0"
     inkscape:pageopacity="0.0"
     inkscape:pageshadow="2"
     inkscape:zoom="22.4"
     inkscape:cx="13.482143"
     inkscape:cy="14.553572"
     inkscape:document-units="mm"
     inkscape:current-layer="g4534"
     inkscape:document-rotation="0"
     showgrid="false"
     units="px"
     lock-margins="true"
     fit-margin-top="2"
     fit-margin-left="2"
     fit-margin-right="2"
     fit-margin-bottom="2"
     inkscape:window-width="3440"
     inkscape:window-height="1377"
     inkscape:window-x="-8"
     inkscape:window-y="-8"
     inkscape:window-maximized="1"
     inkscape:pagecheckerboard="true"
     inkscape:deskcolor="#d1d1d1"
     inkscape:showpageshadow="2" />
  <metadata
     id="metadata3960">
    <rdf:RDF>
      <cc:Work
         rdf:about="">
        <dc:format>image/svg+xml</dc:format>
        <dc:type
           rdf:resource="http://purl.org/dc/dcmitype/StillImage" />
      </cc:Work>
    </rdf:RDF>
  </metadata>
  <g
     inkscape:label="Layer 1"
     inkscape:groupmode="layer"
     id="layer1"
     transform="translate(-25.24881,-32.808334)">
    <g
       id="g4534"
       transform="translate(18.294048,32.142151)"
       style="stroke-width:1.05833;stroke-miterlimit:4;stroke-dasharray:none">
      <rect
         style="fill:#055a84;stroke-width:0.318933;stroke-linecap:round;fill-opacity:1"
         id="rect1514"
         width="7.4083333"
         height="7.4083333"
         x="7.4839282"
         y="1.1953492" />
      <g
         aria-label="B"
         id="text3884-2"
         style="font-size:5.51799px;line-height:1.25;letter-spacing:0px;word-spacing:0px;fill:#ffffff">
        <path
           d="m 9.7749186,6.8609891 h 1.4306894 q 0.32332,0 0.581976,-0.072747 0.258656,-0.072747 0.439176,-0.2182409 0.18052,-0.1454938 0.277516,-0.3610403 0.097,-0.2155465 0.097,-0.4984513 0,-0.1481882 -0.04041,-0.2855991 Q 12.523136,5.2848054 12.442306,5.1662548 12.364171,5.0557873 12.248315,4.972263 12.135153,4.8887387 11.941161,4.8348521 v -0.00269 q 0.09969,-0.037721 0.18052,-0.091607 0.08352,-0.053887 0.148188,-0.1185506 0.118551,-0.1185505 0.177826,-0.2748217 0.06197,-0.1589656 0.06466,-0.3367914 0,-0.2748218 -0.102385,-0.4768966 Q 12.310284,3.3314153 12.124375,3.1993931 11.938467,3.0673709 11.674422,3.0027069 11.413072,2.938043 11.092447,2.938043 H 9.7749186 Z M 10.53472,5.1312285 h 0.705915 q 0.158965,0.00269 0.274822,0.043109 0.115856,0.040415 0.188603,0.1158563 0.07275,0.072747 0.105079,0.1778258 0.03503,0.1050789 0.03503,0.2371011 0,0.1266336 -0.0458,0.2290182 -0.04311,0.1023846 -0.129328,0.1751315 -0.07814,0.064664 -0.196686,0.1023846 -0.115856,0.037721 -0.264044,0.037721 H 10.53472 Z m 0,-0.5469492 V 3.5550448 h 0.560421 q 0.183214,0.00269 0.317931,0.040415 0.137411,0.037721 0.218241,0.1212449 0.06197,0.059275 0.09161,0.1481882 0.03233,0.088913 0.03233,0.2074635 0,0.1131619 -0.03772,0.2020748 -0.03503,0.088913 -0.102384,0.1508826 -0.08083,0.078136 -0.212852,0.1185505 -0.132023,0.037721 -0.30446,0.040415 z"
           style="font-weight:bold;font-family:'Roboto Mono';-inkscape-font-specification:'Roboto Mono Bold';text-align:center;text-anchor:middle"
           id="path4903" />
      </g>
    </g>
  </g>
</svg>
