<?xml version="1.0" encoding="UTF-8" standalone="no"?>
<svg
   width="32"
   height="32"
   viewBox="0 0 8.4666665 8.4666669"
   version="1.1"
   id="svg3963"
   inkscape:export-filename="\\wsl$\Ubuntu\home\derek\projects\OTrainMap\src\images\line2.png"
   inkscape:export-xdpi="48.000004"
   inkscape:export-ydpi="48.000004"
   inkscape:version="1.2 (dc2aedaf03, 2022-05-15)"
   sodipodi:docname="redline.svg"
   xmlns:inkscape="http://www.inkscape.org/namespaces/inkscape"
   xmlns:sodipodi="http://sodipodi.sourceforge.net/DTD/sodipodi-0.dtd"
   xmlns="http://www.w3.org/2000/svg"
   xmlns:svg="http://www.w3.org/2000/svg"
   xmlns:rdf="http://www.w3.org/1999/02/22-rdf-syntax-ns#"
   xmlns:cc="http://creativecommons.org/ns#"
   xmlns:dc="http://purl.org/dc/elements/1.1/">
  <defs
     id="defs3957" />
  <sodipodi:namedview
     id="base"
     pagecolor="#ffffff"
     bordercolor="#666666"
     borderopacity="1.0"
     inkscape:pageopacity="0.0"
     inkscape:pageshadow="2"
     inkscape:zoom="22.4"
     inkscape:cx="13.526786"
     inkscape:cy="14.598214"
     inkscape:document-units="mm"
     inkscape:current-layer="g4534"
     inkscape:document-rotation="0"
     showgrid="false"
     units="px"
     lock-margins="true"
     fit-margin-top="2"
     fit-margin-left="2"
     fit-margin-right="2"
     fit-margin-bottom="2"
     inkscape:window-width="3440"
     inkscape:window-height="1377"
     inkscape:window-x="-8"
     inkscape:window-y="-8"
     inkscape:window-maximized="1"
     inkscape:pagecheckerboard="true"
     inkscape:deskcolor="#d1d1d1"
     inkscape:showpageshadow="2" />
  <metadata
     id="metadata3960">
    <rdf:RDF>
      <cc:Work
         rdf:about="">
        <dc:format>image/svg+xml</dc:format>
        <dc:type
           rdf:resource="http://purl.org/dc/dcmitype/StillImage" />
      </cc:Work>
    </rdf:RDF>
  </metadata>
  <g
     inkscape:label="Layer 1"
     inkscape:groupmode="layer"
     id="layer1"
     transform="translate(-25.24881,-32.808334)">
    <g
       id="g4534"
       transform="translate(18.294048,32.142151)"
       style="stroke-width:1.05833;stroke-miterlimit:4;stroke-dasharray:none">
      <rect
         style="fill:#ee1b2c;stroke-width:0.318933;stroke-linecap:round;fill-opacity:1"
         id="rect1514"
         width="7.4083333"
         height="7.4083333"
         x="7.4839282"
         y="1.1953492" />
      <g
         aria-label="R"
         id="text3884-2"
         style="font-size:5.51799px;line-height:1.25;letter-spacing:0px;word-spacing:0px;fill:#ffffff">
        <path
           d="m 11.078974,5.395273 0.738247,1.4657161 h 0.810994 v -0.035026 l -0.843326,-1.619293 q 0.16166,-0.072747 0.290988,-0.1724372 0.132022,-0.09969 0.226324,-0.2344068 0.09161,-0.1320222 0.140105,-0.2990708 0.05119,-0.1697428 0.05119,-0.3799006 0,-0.2909878 -0.102384,-0.511923 Q 12.291423,3.3879963 12.105515,3.2398081 11.916911,3.0916199 11.652867,3.0161786 11.388823,2.938043 11.062808,2.938043 H 9.7479749 V 6.8609891 H 10.505082 V 5.395273 Z M 10.505082,4.7809655 v -1.228615 h 0.557726 q 0.156272,0 0.277517,0.037721 0.121244,0.037721 0.204769,0.1077733 0.0943,0.078136 0.140105,0.1993805 0.0485,0.1185505 0.0485,0.2748217 0,0.1293279 -0.03772,0.2344069 -0.03503,0.1050789 -0.105079,0.1805201 -0.08352,0.094302 -0.21824,0.1454939 -0.132023,0.048498 -0.307154,0.048498 z"
           style="font-weight:bold;font-family:'Roboto Mono';-inkscape-font-specification:'Roboto Mono Bold';text-align:center;text-anchor:middle"
           id="path5413" />
      </g>
    </g>
  </g>
</svg>
