<svg width="322" height="322" viewBox="0 0 322 322" fill="none" xmlns="http://www.w3.org/2000/svg">
<g clip-path="url(#clip0)">
<path d="M292.554 252.001H279.888V244.001H292.554V252.001Z" fill="black" stroke="#231F20" stroke-width="1.33333" stroke-miterlimit="10" stroke-linecap="round"/>
<path d="M299.888 241.501C299.888 231.375 308.096 223.167 318.221 223.167C328.347 223.167 336.555 231.375 336.555 241.501C336.555 251.626 328.347 259.834 318.221 259.834C308.096 259.834 299.888 251.626 299.888 241.501Z" fill="black"/>
<path d="M299.888 241.501C299.888 231.375 308.096 223.167 318.221 223.167C328.347 223.167 336.555 231.375 336.555 241.501C336.555 251.626 328.347 259.834 318.221 259.834C308.096 259.834 299.888 251.626 299.888 241.501Z" stroke="#231F20" stroke-width="1.33333" stroke-miterlimit="10" stroke-linecap="round"/>
<path d="M764.555 66.6673H222.555V244.001H764.555V66.6673Z" fill="white"/>
<path d="M191 196.334H241.223V79.834H191V196.334Z" fill="white"/>
<path d="M222.555 66.6673C222.555 66.6673 180.555 67.0006 166.221 71.6673C151.888 76.334 150.221 86.0006 150.221 86.0006L164.221 89.6673L200.221 93.0006H220.555H222.555V66.6673Z" fill="white"/>
<path d="M200.221 93.0006L211.221 86.0006L209.221 125.334L230.221 132.667L193.888 185.334L222.555 176.078V190.334L249.555 199.933L226.221 226.001L235.888 244.001H222.555L176.888 203.334L180.221 106.001L200.221 93.0006Z" fill="#FF0000"/>
<path d="M222.555 244.001L102.888 239.667C102.888 239.667 98.5987 238.834 98.4933 233.334C98.388 227.834 98.4933 215.667 98.4933 215.667L175.221 186.89H222.555V244.001Z" fill="#FF0000"/>
<path d="M167.333 94.0006L116.666 186.89L178.11 186.334L190.11 167.778L190.999 94.0006L168.443 92.2233L167.333 94.0006Z" fill="#606277"/>
<path d="M113.888 183.667H102.888C102.888 183.667 97.888 194.334 98.5546 214.001L98.4933 215.667C98.4933 215.667 101.48 216.862 113.888 215.667" fill="black"/>
<path d="M456.554 186.89H235.888V106.001H456.554V186.89Z" fill="black"/>
<path d="M263.888 179.334H242.555V121.334H263.888V179.334Z" fill="#606277"/>
<path d="M354.555 178.667H292.555V121.334H354.555V178.667Z" fill="#606277"/>
<path d="M150.221 86.0006L147.221 89.6673L162.221 93.0006C162.221 93.0006 127.555 144.334 113.888 183.667H121.221C121.221 183.667 151.221 118.001 170.555 95.0006L188.221 95.6673C188.221 95.6673 190.221 134.001 188.221 157.334C186.221 180.667 169.888 193.667 169.888 193.667C169.888 193.667 151.221 211.001 113.888 211.667V215.667C113.888 215.667 176.888 216.001 195.555 158.334C195.555 158.334 206.221 134.382 205.888 97.0246L205.896 93.0006C205.896 93.0006 173.888 94.6673 150.221 86.0006Z" fill="black"/>
<path d="M121.221 183.667H178.707C178.707 183.667 161.555 213.001 113.888 211.667V183.667H121.221Z" fill="black"/>
<path d="M111.971 198.667H106.805C106.805 198.667 100.305 201.083 100.305 213.167H111.971V199.167" fill="#E9E8DF"/>
<path d="M128.405 168.487H188.777V165.111H128.405V168.487Z" fill="black"/>
<path d="M162.943 92.4114L114.022 183.667H102.887C102.887 183.667 119.645 129.875 147.761 89.0554C147.761 89.0554 155.634 92.0754 162.943 92.4114Z" fill="#606277"/>
<path d="M155.11 168.488L149.554 183.668H151.777L156.777 168.488H155.11Z" fill="black"/>
<path d="M279.888 244.001C437.888 194.001 764.555 199.933 764.555 199.933V192.321L749.665 192.667C749.665 192.667 653.888 189.334 470.332 203.334C286.777 217.334 242.555 244.001 242.555 244.001H279.888Z" fill="#FF0000"/>
<path d="M764.721 201.834C764.721 201.834 499.444 194.667 292.555 244.001H307.444C307.444 244.001 480.332 202.057 764.555 205.918L764.721 201.834Z" fill="#808080"/>
</g>
<defs>
<clipPath id="clip0">
<rect width="322" height="322" fill="white"/>
</clipPath>
</defs>
</svg>
