<?xml version="1.0" encoding="UTF-8" standalone="no"?>
<svg
   xmlns:dc="http://purl.org/dc/elements/1.1/"
   xmlns:cc="http://creativecommons.org/ns#"
   xmlns:rdf="http://www.w3.org/1999/02/22-rdf-syntax-ns#"
   xmlns:svg="http://www.w3.org/2000/svg"
   xmlns="http://www.w3.org/2000/svg"
   xmlns:sodipodi="http://sodipodi.sourceforge.net/DTD/sodipodi-0.dtd"
   xmlns:inkscape="http://www.inkscape.org/namespaces/inkscape"
   width="322"
   height="322"
   viewBox="0 0 322 322"
   fill="none"
   version="1.1"
   id="svg51"
   sodipodi:docname="gatineau.svg"
   inkscape:version="1.0.2-2 (e86c870879, 2021-01-15)">
  <metadata
     id="metadata55">
    <rdf:RDF>
      <cc:Work
         rdf:about="">
        <dc:format>image/svg+xml</dc:format>
        <dc:type
           rdf:resource="http://purl.org/dc/dcmitype/StillImage" />
        <dc:title />
      </cc:Work>
    </rdf:RDF>
  </metadata>
  <sodipodi:namedview
     pagecolor="#ffffff"
     bordercolor="#666666"
     borderopacity="1"
     objecttolerance="10"
     gridtolerance="10"
     guidetolerance="10"
     inkscape:pageopacity="0"
     inkscape:pageshadow="2"
     inkscape:window-width="1920"
     inkscape:window-height="1017"
     id="namedview53"
     showgrid="false"
     inkscape:zoom="1.4142136"
     inkscape:cx="102.80462"
     inkscape:cy="27.980164"
     inkscape:window-x="-8"
     inkscape:window-y="345"
     inkscape:window-maximized="1"
     inkscape:current-layer="g44"
     inkscape:document-rotation="0"
     inkscape:snap-bbox="true"
     inkscape:bbox-nodes="true"
     inkscape:snap-bbox-edge-midpoints="true"
     inkscape:snap-object-midpoints="true"
     inkscape:bbox-paths="true"
     inkscape:object-paths="true"
     inkscape:snap-intersection-paths="true" />
  <g
     clip-path="url(#clip0)"
     id="g44">
    <path
       d="M292.554 252.001H279.888V244.001H292.554V252.001Z"
       fill="black"
       stroke="#231F20"
       stroke-width="1.33333"
       stroke-miterlimit="10"
       stroke-linecap="round"
       id="path2"
       style="fill:#000a0a;fill-opacity:1" />
    <path
       d="M299.888 241.501C299.888 231.375 308.096 223.167 318.221 223.167C328.347 223.167 336.555 231.375 336.555 241.501C336.555 251.626 328.347 259.834 318.221 259.834C308.096 259.834 299.888 251.626 299.888 241.501Z"
       fill="black"
       id="path4"
       style="fill:#000a0a;fill-opacity:1" />
    <path
       d="M299.888 241.501C299.888 231.375 308.096 223.167 318.221 223.167C328.347 223.167 336.555 231.375 336.555 241.501C336.555 251.626 328.347 259.834 318.221 259.834C308.096 259.834 299.888 251.626 299.888 241.501Z"
       stroke="#231F20"
       stroke-width="1.33333"
       stroke-miterlimit="10"
       stroke-linecap="round"
       id="path6" />
    <path
       d="m 764.555,66.6673 h -542 V 244.001 h 542 z"
       fill="white"
       id="path8"
       style="fill:#ffffff;fill-opacity:1"
       sodipodi:nodetypes="ccccc" />
    <path
       d="m 172.4837,194.63385 50.24914,-7.72042 2.01887,-93.666538 -52.26801,-15.113033 z"
       fill="white"
       id="path10"
       style="fill:#007e88;fill-opacity:1"
       sodipodi:nodetypes="ccccc" />
    <path
       d="m 223.10743,66.6673 c 0,0 -42.55243,0.3333 -56.88643,5 -14.333,4.6667 -16,14.3333 -16,14.3333 l 11.24571,4.912691 38.75429,3.202143 22.8044,-1.115158 2.625,0.375 z"
       fill="white"
       id="path12"
       style="fill:#007e88;fill-opacity:1"
       sodipodi:nodetypes="cccccccc" />
    <path
       style="fill:#007e88;fill-opacity:1;stroke:none;stroke-width:1px;stroke-linecap:butt;stroke-linejoin:miter;stroke-opacity:1"
       d="m 223.10743,66.6673 -0.98936,177.31788 9.63193,0.0158 56,-177.3337 z"
       id="path852"
       sodipodi:nodetypes="ccccc" />
    <path
       d="m 222.555,244.001 -119.667,-4.334 c 0,0 -4.2893,-0.833 -4.3947,-6.333 -0.1053,-5.5 0,-17.667 0,-17.667 l 76.7277,-28.777 47.51184,0.0234 z"
       fill="#FF0000"
       id="path16"
       style="fill:#007e88;fill-opacity:1"
       sodipodi:nodetypes="ccccccc" />
    <path
       d="M167.333 94.0006L116.666 186.89L178.11 186.334L190.11 167.778L190.999 94.0006L168.443 92.2233L167.333 94.0006Z"
       fill="#606277"
       id="path18" />
    <path
       d="M113.888 183.667H102.888C102.888 183.667 97.888 194.334 98.5546 214.001L98.4933 215.667C98.4933 215.667 101.48 216.862 113.888 215.667"
       fill="black"
       id="path20"
       style="fill:#000a0a;fill-opacity:1" />
    <path
       d="M456.554 186.89H235.888V106.001H456.554V186.89Z"
       fill="black"
       id="path22"
       style="fill:#000a0a;fill-opacity:1" />
    <path
       d="M263.888 179.334H242.555V121.334H263.888V179.334Z"
       fill="#606277"
       id="path24" />
    <path
       d="M354.555 178.667H292.555V121.334H354.555V178.667Z"
       fill="#606277"
       id="path26" />
    <path
       d="M150.221 86.0006L147.221 89.6673L162.221 93.0006C162.221 93.0006 127.555 144.334 113.888 183.667H121.221C121.221 183.667 151.221 118.001 170.555 95.0006L188.221 95.6673C188.221 95.6673 190.221 134.001 188.221 157.334C186.221 180.667 169.888 193.667 169.888 193.667C169.888 193.667 151.221 211.001 113.888 211.667V215.667C113.888 215.667 176.888 216.001 195.555 158.334C195.555 158.334 206.221 134.382 205.888 97.0246L205.896 93.0006C205.896 93.0006 173.888 94.6673 150.221 86.0006Z"
       fill="black"
       id="path28"
       style="fill:#000a0a;fill-opacity:1" />
    <path
       d="M121.221 183.667H178.707C178.707 183.667 161.555 213.001 113.888 211.667V183.667H121.221Z"
       fill="black"
       id="path30"
       style="fill:#000a0a;fill-opacity:1" />
    <path
       d="M111.971 198.667H106.805C106.805 198.667 100.305 201.083 100.305 213.167H111.971V199.167"
       fill="#E9E8DF"
       id="path32"
       style="fill:#ffffff;fill-opacity:1" />
    <path
       d="M128.405 168.487H188.777V165.111H128.405V168.487Z"
       fill="black"
       id="path34" />
    <path
       d="M162.943 92.4114L114.022 183.667H102.887C102.887 183.667 119.645 129.875 147.761 89.0554C147.761 89.0554 155.634 92.0754 162.943 92.4114Z"
       fill="#606277"
       id="path36" />
    <path
       d="M155.11 168.488L149.554 183.668H151.777L156.777 168.488H155.11Z"
       fill="black"
       id="path38" />
  </g>
  <defs
     id="defs49">
    <clipPath
       id="clip0">
      <rect
         width="322"
         height="322"
         fill="white"
         id="rect46" />
    </clipPath>
  </defs>
</svg>
