<?xml version="1.0" encoding="UTF-8" standalone="no"?>
<svg
   width="32"
   height="32"
   viewBox="0 0 8.4666665 8.4666669"
   version="1.1"
   id="svg3963"
   inkscape:export-filename="\\wsl$\Ubuntu\home\derek\projects\OTrainMap\src\images\line2.png"
   inkscape:export-xdpi="48.000004"
   inkscape:export-ydpi="48.000004"
   inkscape:version="1.2-beta (1b65182ce9, 2022-04-05)"
   sodipodi:docname="line5.svg"
   xmlns:inkscape="http://www.inkscape.org/namespaces/inkscape"
   xmlns:sodipodi="http://sodipodi.sourceforge.net/DTD/sodipodi-0.dtd"
   xmlns="http://www.w3.org/2000/svg"
   xmlns:svg="http://www.w3.org/2000/svg"
   xmlns:rdf="http://www.w3.org/1999/02/22-rdf-syntax-ns#"
   xmlns:cc="http://creativecommons.org/ns#"
   xmlns:dc="http://purl.org/dc/elements/1.1/">
  <defs
     id="defs3957" />
  <sodipodi:namedview
     id="base"
     pagecolor="#ffffff"
     bordercolor="#666666"
     borderopacity="1.0"
     inkscape:pageopacity="0.0"
     inkscape:pageshadow="2"
     inkscape:zoom="7.9195959"
     inkscape:cx="19.445437"
     inkscape:cy="10.732871"
     inkscape:document-units="mm"
     inkscape:current-layer="g4534"
     inkscape:document-rotation="0"
     showgrid="false"
     units="px"
     lock-margins="true"
     fit-margin-top="2"
     fit-margin-left="2"
     fit-margin-right="2"
     fit-margin-bottom="2"
     inkscape:window-width="1920"
     inkscape:window-height="1017"
     inkscape:window-x="-8"
     inkscape:window-y="-8"
     inkscape:window-maximized="1"
     inkscape:pagecheckerboard="true"
     inkscape:snap-bbox="true"
     inkscape:snap-bbox-midpoints="true"
     inkscape:deskcolor="#d1d1d1" />
  <metadata
     id="metadata3960">
    <rdf:RDF>
      <cc:Work
         rdf:about="">
        <dc:format>image/svg+xml</dc:format>
        <dc:type
           rdf:resource="http://purl.org/dc/dcmitype/StillImage" />
        <dc:title />
      </cc:Work>
    </rdf:RDF>
  </metadata>
  <g
     inkscape:label="Layer 1"
     inkscape:groupmode="layer"
     id="layer1"
     transform="translate(-25.24881,-32.808334)">
    <g
       id="g4534"
       transform="translate(18.294048,32.142151)"
       style="stroke-width:1.05833;stroke-miterlimit:4;stroke-dasharray:none">
      <circle
         style="fill:#f6821f;fill-opacity:1;stroke:#ffffff;stroke-width:1.05833333;stroke-miterlimit:4;stroke-dasharray:none;paint-order:stroke fill markers"
         id="path3313-5"
         cx="11.188095"
         cy="4.8995161"
         r="3.175" />
      <g
         aria-label="5"
         id="text3884-2"
         style="font-size:5.51799px;line-height:1.25;letter-spacing:0px;word-spacing:0px;fill:#ffffff">
        <path
           d="m 9.974299,4.9022105 0.598142,0.1481882 q 0.04311,-0.043109 0.09161,-0.08083 0.0485,-0.040415 0.110467,-0.070053 0.06197,-0.029638 0.1428,-0.048498 0.08083,-0.01886 0.191297,-0.01886 0.164355,0 0.2856,0.051192 0.121244,0.051192 0.202074,0.1454938 0.08083,0.094302 0.118551,0.2263239 0.04042,0.1293279 0.04042,0.2855991 0,0.1589655 -0.03233,0.2963764 -0.02964,0.1374109 -0.0943,0.2371011 -0.06736,0.09969 -0.175131,0.1562712 -0.105079,0.056581 -0.255962,0.056581 -0.245184,0 -0.404149,-0.1401052 Q 10.637104,6.0068862 10.610161,5.7509248 H 9.8719144 q 0.00808,0.2721274 0.1212449,0.4849796 0.1158567,0.2101578 0.2990707,0.3556517 0.183215,0.1454939 0.417621,0.2209351 0.237102,0.075441 0.490369,0.075441 0.334097,0 0.579281,-0.1050789 0.245184,-0.1050789 0.406844,-0.2855991 0.16166,-0.1805202 0.239795,-0.4176213 0.07814,-0.2371012 0.07814,-0.5011456 0,-0.3098481 -0.08083,-0.5550322 -0.08083,-0.2451841 -0.231712,-0.414927 -0.153577,-0.1697429 -0.377207,-0.2586558 -0.220935,-0.091607 -0.50384,-0.091607 -0.19938,0 -0.352957,0.051192 -0.153577,0.051192 -0.237101,0.09969 l 0.0943,-0.862186 h 1.560018 V 2.9110998 h -2.177019 z"
           style="font-weight:bold;font-family:'Roboto Mono';-inkscape-font-specification:'Roboto Mono Bold';text-align:center;text-anchor:middle"
           id="path657" />
      </g>
    </g>
  </g>
</svg>
