<?xml version="1.0" encoding="UTF-8" standalone="no"?>
<svg
   width="32"
   height="32"
   viewBox="0 0 8.4666665 8.4666669"
   version="1.1"
   id="svg3963"
   inkscape:export-filename="\\wsl$\Ubuntu\home\derek\projects\OTrainMap\src\images\line2.png"
   inkscape:export-xdpi="48.000004"
   inkscape:export-ydpi="48.000004"
   inkscape:version="1.2 (dc2aedaf03, 2022-05-15)"
   sodipodi:docname="route509.svg"
   xmlns:inkscape="http://www.inkscape.org/namespaces/inkscape"
   xmlns:sodipodi="http://sodipodi.sourceforge.net/DTD/sodipodi-0.dtd"
   xmlns="http://www.w3.org/2000/svg"
   xmlns:svg="http://www.w3.org/2000/svg"
   xmlns:rdf="http://www.w3.org/1999/02/22-rdf-syntax-ns#"
   xmlns:cc="http://creativecommons.org/ns#"
   xmlns:dc="http://purl.org/dc/elements/1.1/">
  <defs
     id="defs3957" />
  <sodipodi:namedview
     id="base"
     pagecolor="#ffffff"
     bordercolor="#666666"
     borderopacity="1.0"
     inkscape:pageopacity="0.0"
     inkscape:pageshadow="2"
     inkscape:zoom="7.9195959"
     inkscape:cx="5.8083772"
     inkscape:cy="19.824244"
     inkscape:document-units="mm"
     inkscape:current-layer="g4534"
     inkscape:document-rotation="0"
     showgrid="false"
     units="px"
     lock-margins="true"
     fit-margin-top="2"
     fit-margin-left="2"
     fit-margin-right="2"
     fit-margin-bottom="2"
     inkscape:window-width="973"
     inkscape:window-height="1027"
     inkscape:window-x="931"
     inkscape:window-y="0"
     inkscape:window-maximized="0"
     inkscape:pagecheckerboard="true"
     inkscape:snap-bbox="true"
     inkscape:snap-bbox-midpoints="true"
     inkscape:showpageshadow="2"
     inkscape:deskcolor="#d1d1d1" />
  <metadata
     id="metadata3960">
    <rdf:RDF>
      <cc:Work
         rdf:about="">
        <dc:format>image/svg+xml</dc:format>
        <dc:type
           rdf:resource="http://purl.org/dc/dcmitype/StillImage" />
      </cc:Work>
    </rdf:RDF>
  </metadata>
  <g
     inkscape:label="Layer 1"
     inkscape:groupmode="layer"
     id="layer1"
     transform="translate(-25.24881,-32.808334)"
     style="display:inline">
    <g
       id="g4534"
       transform="translate(18.294048,32.142151)"
       style="stroke-width:1.05833;stroke-miterlimit:4;stroke-dasharray:none">
      <ellipse
         style="fill:#ff0000;fill-opacity:1;stroke:#ffffff;stroke-width:1.05829;stroke-miterlimit:4;stroke-dasharray:none;paint-order:stroke fill markers"
         id="path3313-5"
         cx="11.187928"
         cy="4.8993511"
         rx="3.1748571"
         ry="3.1748593" />
      <g
         aria-label="509"
         id="text3884-2"
         style="font-size:2.82222px;line-height:1.25;letter-spacing:0px;word-spacing:0px;fill:#ffffff">
        <path
           d="m 8.8226947,4.9146745 0.3059242,0.075792 q 0.022049,-0.022049 0.046853,-0.041341 0.024805,-0.02067 0.0565,-0.035829 0.031695,-0.015159 0.073036,-0.024805 0.041341,-0.00965 0.097841,-0.00965 0.08406,0 0.1460719,0.026183 0.062012,0.026183 0.1033528,0.074414 0.041341,0.048231 0.060634,0.1157552 0.02067,0.066146 0.02067,0.1460719 0,0.081304 -0.016536,0.1515841 -0.015158,0.07028 -0.048231,0.1212673 -0.034451,0.050987 -0.089573,0.079926 -0.053743,0.028939 -0.1309135,0.028939 -0.1254014,0 -0.2067056,-0.071658 -0.079926,-0.071658 -0.093706,-0.2025715 H 8.7703292 q 0.00413,0.1391817 0.062012,0.2480467 0.059256,0.1074869 0.1529621,0.1819009 0.093707,0.074414 0.2135958,0.112999 0.1212673,0.038585 0.2508028,0.038585 0.1708766,0 0.2962779,-0.053743 0.1254014,-0.053743 0.2080837,-0.1460719 0.082682,-0.092329 0.1226448,-0.2135958 0.03996,-0.1212672 0.03996,-0.2563149 0,-0.1584743 -0.04134,-0.2838756 Q 10.033989,4.8512848 9.9568192,4.7644684 9.8782711,4.6776521 9.763894,4.6321769 9.650895,4.5853236 9.5062011,4.5853236 q -0.1019748,0 -0.1805229,0.026183 -0.078548,0.026183 -0.1212673,0.050987 L 9.2526422,4.2215218 H 10.050526 V 3.896305 H 8.9370717 Z"
           style="font-weight:bold;font-family:'Roboto Mono';-inkscape-font-specification:'Roboto Mono Bold';text-align:center;text-anchor:middle"
           id="path970" />
        <path
           d="M 11.803389,5.1392945 V 4.6597376 q 0,-0.1943032 -0.04547,-0.3417532 -0.04547,-0.148828 -0.129536,-0.2494247 -0.08544,-0.099219 -0.206705,-0.1502061 -0.121268,-0.050987 -0.272852,-0.050987 -0.150206,0 -0.271473,0.050987 -0.119889,0.050987 -0.203949,0.1502061 -0.08544,0.1005967 -0.130914,0.2494247 -0.04547,0.14745 -0.04547,0.3417532 v 0.4795569 q 0,0.1943033 0.04547,0.3431313 0.04685,0.14745 0.132292,0.2466686 0.08406,0.1005968 0.205327,0.1515841 0.121267,0.050987 0.271473,0.050987 0.151585,0 0.272852,-0.050987 0.121267,-0.050987 0.205327,-0.1515841 0.08406,-0.099219 0.128158,-0.2466686 0.04547,-0.148828 0.04547,-0.3431313 z M 10.88286,4.9739301 q 0,-0.042719 0,-0.064768 0,-0.022049 0,-0.088194 V 4.599104 q 0,-0.111621 0.01654,-0.1929252 0.01791,-0.081304 0.05374,-0.1322916 0.03307,-0.048231 0.0813,-0.071658 0.04961,-0.024805 0.114377,-0.024805 0.05788,0 0.103353,0.019292 0.04685,0.017914 0.07855,0.0565 0.04134,0.048231 0.06201,0.1295354 0.02205,0.079926 0.0248,0.1929252 z m 0.534679,0.223242 q 0,0.111621 -0.01792,0.1943032 -0.01654,0.081304 -0.05099,0.1336696 -0.03307,0.049609 -0.08268,0.074414 -0.04961,0.023427 -0.114378,0.023427 -0.07028,0 -0.121267,-0.027561 -0.05099,-0.027561 -0.08406,-0.08406 -0.02894,-0.046853 -0.04547,-0.1171332 -0.01516,-0.07028 -0.01791,-0.1612303 l 0.534679,-0.3968747 q 0,0.039963 0,0.062012 0,0.020671 0,0.066146 z"
           style="font-weight:bold;font-family:'Roboto Mono';-inkscape-font-specification:'Roboto Mono Bold';text-align:center;text-anchor:middle"
           id="path972" />
        <path
           d="m 12.453823,5.5981809 h -0.02618 v 0.3210827 h 0.02894 q 0.265961,0 0.457508,-0.081304 0.191547,-0.082682 0.315571,-0.2301322 0.124023,-0.146072 0.183278,-0.3472654 0.05926,-0.2011934 0.05926,-0.4409719 V 4.6872984 q 0,-0.1791449 -0.04685,-0.3293509 -0.04547,-0.1502061 -0.132292,-0.259071 -0.08819,-0.1088649 -0.213596,-0.1694986 -0.125401,-0.060634 -0.282497,-0.060634 -0.15434,0 -0.278364,0.0565 -0.122645,0.055121 -0.209461,0.1515841 -0.08682,0.096463 -0.13367,0.2259981 -0.04547,0.1281574 -0.04547,0.2742294 0,0.1419378 0.03721,0.2659612 0.03858,0.1226453 0.112999,0.2135957 0.07304,0.09095 0.181901,0.1433159 0.108865,0.052365 0.252181,0.052365 0.06752,0 0.124023,-0.011024 0.0565,-0.012402 0.101975,-0.033073 0.04272,-0.017915 0.07855,-0.042719 0.03583,-0.024805 0.06477,-0.053744 v 0.00827 q -0.01378,0.110243 -0.0565,0.1998154 -0.04134,0.088194 -0.115755,0.148828 -0.07717,0.06339 -0.190169,0.096463 -0.112999,0.033073 -0.267339,0.033073 z m 0.351399,-0.6421653 q -0.07441,0 -0.129535,-0.030317 -0.05512,-0.031695 -0.09095,-0.08406 -0.03721,-0.052365 -0.05512,-0.1226453 -0.01792,-0.07028 -0.01792,-0.14745 0,-0.07717 0.01929,-0.1474499 0.01929,-0.071658 0.05512,-0.1267795 0.03583,-0.053743 0.08819,-0.085438 0.05374,-0.033073 0.121267,-0.033073 0.06201,0 0.115755,0.027561 0.05374,0.027561 0.09371,0.082682 0.03996,0.055122 0.06201,0.1378037 0.02343,0.082682 0.02343,0.1929252 v 0.1364257 q -0.01654,0.042719 -0.0441,0.079926 -0.02618,0.035829 -0.06201,0.062012 -0.03721,0.027561 -0.08268,0.042719 -0.0441,0.015158 -0.09646,0.015158 z"
           style="font-weight:bold;font-family:'Roboto Mono';-inkscape-font-specification:'Roboto Mono Bold';text-align:center;text-anchor:middle"
           id="path974" />
      </g>
    </g>
  </g>
</svg>
