<?xml version="1.0" encoding="utf-8"?>
<!-- Generator: Adobe Illustrator 26.3.1, SVG Export Plug-In . SVG Version: 6.00 Build 0)  -->
<svg version="1.1" id="Layer_1" xmlns="http://www.w3.org/2000/svg" xmlns:xlink="http://www.w3.org/1999/xlink" x="0px" y="0px"
	 viewBox="0 0 400 400" style="enable-background:new 0 0 400 400;" xml:space="preserve">
<style type="text/css">
	.st0{fill:#FEBC17;}
</style>
<path class="st0" d="M42,96.2l124,76.4l-89.7,53.8l88.9,56.2l-33.5,21.1L5.3,228c-0.8,0-0.8-0.8-0.8-1.6l88.9-53.8L4.6,116.5
	L42,96.2"/>
<path class="st0" d="M150.4,96.2l129.5,76.4L190.2,228l88.2,55.4l-33.5,20.3L118.4,228v-1.6l88.1-54.6l-88.1-55.4L149.6,97
	C150.4,97,149.6,96.2,150.4,96.2"/>
<path class="st0" d="M269.1,95.8L395.4,173l-89.7,54.6l89.7,55.4l-36.7,21l-124.1-76.5l88.2-53.8l-88.2-57l32.8-20.3
	C268.3,95.8,267.5,95.8,269.1,95.8"/>
</svg>
