<?xml version="1.0" encoding="utf-8"?>
<!-- Generator: Adobe Illustrator 26.3.1, SVG Export Plug-In . SVG Version: 6.00 Build 0)  -->
<svg version="1.1" id="Layer_1" xmlns="http://www.w3.org/2000/svg" xmlns:xlink="http://www.w3.org/1999/xlink" x="0px" y="0px"
	 viewBox="0 0 400 400" style="enable-background:new 0 0 400 400;" xml:space="preserve">
<style type="text/css">
	.st0{fill:#E61E25;}
	.st1{fill:none;}
</style>
<g>
	<g>
		<path class="st0" d="M14.7,281.4V118.1h30.7v163.3H14.7z M38.1,256.4L36,211.7l51.2-93.7h36.7L38.1,256.4z M95.1,281.4l-39.5-86
			l23.9-16.7l50.7,102.8H95.1z"/>
		<path class="st0" d="M148.6,281.4V118H179v163.4H148.6z M161.6,214v-28.2h45.2c4.5,0,8-1.3,10.6-4c2.6-2.7,3.8-6.3,3.8-10.9v-9.2
			c0-4.7-1.3-8.5-3.8-11.3c-2.6-2.8-6.1-4.2-10.6-4.2h-45.2V118h45.5c9.4,0,17.6,1.7,24.4,5.2c6.8,3.4,12.1,8.4,15.8,14.8
			c3.7,6.4,5.5,14.1,5.5,22.9v9.5c0,9-1.9,16.7-5.6,23.2c-3.7,6.5-9,11.5-15.8,15c-6.8,3.5-14.9,5.3-24.4,5.3H161.6z M223.7,281.4
			l-32.2-72.4l30.7-5.2l36.7,77.6H223.7z"/>
		<path class="st0" d="M336.4,283.1c-10.8,0-20.1-2-27.8-6c-7.7-4-13.6-9.8-17.7-17.5s-6.1-16.9-6.1-27.7v-64.1
			c0-10.9,2-20.2,6.1-27.9s10-13.5,17.7-17.5c7.7-4,17-6,27.8-6c10.7,0,19.7,2,27.1,6c7.3,4,13,10.1,17,18.4
			c4,8.3,6.4,18.7,7.2,31.2h-31.6c-0.5-5.9-1.5-10.8-3.1-14.7c-1.6-3.9-3.8-6.7-6.5-8.6c-2.8-1.9-6.1-2.8-10-2.8
			c-6.2,0-11.1,1.9-14.7,5.7c-3.6,3.8-5.4,9.2-5.4,16.1v64.1c0,6.9,1.8,12.2,5.4,16c3.6,3.8,8.5,5.7,14.7,5.7
			c5.9,0,10.5-2.1,13.7-6.4c3.3-4.3,5.2-10.8,6-19.7h31.6c-0.9,12.5-3.3,22.9-7.3,31.2c-4,8.3-9.7,14.4-17,18.4
			C356.1,281.1,347.1,283.1,336.4,283.1z"/>
	</g>
</g>
<rect x="172.4" y="151" class="st1" width="6.6" height="0"/>
</svg>
