<?xml version="1.0" encoding="UTF-8"?>
<svg id="Layer_2" data-name="Layer 2" xmlns="http://www.w3.org/2000/svg" viewBox="0 0 90 90">
  <defs>
    <style>
      .cls-1 {
        fill: none;
      }

      .cls-1, .cls-2, .cls-3 {
        stroke-width: 0px;
      }

      .cls-2 {
        fill: #05f;
      }

      .cls-3 {
        opacity: .85;
      }
    </style>
  </defs>
  <g id="Layer_1-2" data-name="Layer 1">
    <g>
      <circle class="cls-2" cx="45" cy="45" r="40"/>
      <circle class="cls-3" cx="45" cy="45" r="35"/>
      <path class="cls-2" d="m28.98,52.01c0-1.56.19-3.07.58-4.54.39-1.47.95-2.92,1.67-4.35.72-1.43,1.58-2.87,2.58-4.32l9.74-14.42h10.95l-9.42,13.85c.52-.08,1.07-.15,1.63-.22.56-.07,1.15-.1,1.75-.1,2.55,0,4.8.56,6.76,1.69,1.96,1.13,3.5,2.71,4.61,4.73s1.67,4.4,1.67,7.11c0,3.01-.69,5.61-2.07,7.82-1.38,2.21-3.28,3.91-5.7,5.11s-5.17,1.8-8.25,1.8c-2.9,0-5.6-.53-8.11-1.58-2.51-1.05-4.54-2.63-6.08-4.73-1.54-2.1-2.31-4.72-2.31-7.86Zm11.03-.08c0,1.13.22,2.13.67,3,.45.87,1.08,1.56,1.89,2.05.81.5,1.75.74,2.83.74s1.97-.25,2.77-.74c.8-.5,1.42-1.18,1.87-2.05.45-.87.67-1.87.67-3s-.23-2.13-.7-3-1.09-1.56-1.89-2.05c-.8-.5-1.71-.74-2.73-.74-1.07,0-2.02.25-2.83.74-.81.5-1.44,1.18-1.89,2.05-.45.87-.67,1.87-.67,3Z"/>
      <rect class="cls-1" width="90" height="90"/>
    </g>
  </g>
</svg>