<svg width="370" height="174" viewBox="0 0 370 174" fill="none" xmlns="http://www.w3.org/2000/svg">
<path d="M25.6016 9.7322L25.5962 9.73446C21.4656 11.4807 17.8417 13.9228 14.7407 17.0575C11.6374 20.1946 9.23015 23.8685 7.51926 28.061C5.79856 32.2457 4.94751 36.7487 4.94751 41.5491C4.94751 47.9653 6.36353 53.8111 9.23138 59.0408C12.0943 64.2613 16.0977 68.4164 21.2152 71.4801L21.2201 71.483C26.4144 74.5724 32.398 76.0866 39.105 76.0866C44.0602 76.0866 48.6492 75.2209 52.846 73.461C57.0122 71.7138 60.6289 69.2672 63.6745 66.1202C66.7414 62.9522 69.0996 59.2779 70.7459 55.1134C72.4298 50.9021 73.2625 46.3741 73.2625 41.5491C73.2625 36.751 72.4123 32.2501 70.6933 28.0671C69.0146 23.8737 66.6234 20.1989 63.5207 17.0615C60.4476 13.9218 56.8205 11.4791 52.659 9.73348C48.4961 7.97393 43.9699 7.1066 39.105 7.1066C34.2985 7.1066 29.7901 7.97571 25.6016 9.7322ZM47.1678 26.4488L47.1677 26.4488L47.1769 26.4548C49.5373 28.0003 51.3791 30.061 52.714 32.674C54.044 35.2774 54.7275 38.2222 54.7275 41.5491C54.7275 44.8741 54.0447 47.8369 52.712 50.4756C51.3777 53.0858 49.5374 55.1448 47.1793 56.6893C44.9115 58.1641 42.2445 58.9291 39.105 58.9291C36.0055 58.9291 33.336 58.168 31.0306 56.6892C28.7068 55.1465 26.881 53.0883 25.5455 50.4756C24.2128 47.8369 23.53 44.8741 23.53 41.5491C23.53 38.2222 24.2135 35.2774 25.5436 32.674C26.8806 30.0568 28.7093 27.9959 31.0376 26.4519C33.343 24.9436 36.0098 24.1691 39.105 24.1691C42.2382 24.1691 44.9009 24.9467 47.1678 26.4488ZM77.785 57.4141V59.4141H79.785H104.248H106.248V57.4141V45.3016V43.3016H104.248H79.785H77.785V45.3016V57.4141ZM108.701 22.5016V24.5016H110.701H123.663V72.9466V74.9466H125.663H139.676H141.676V72.9466V24.5016H154.686H156.686V22.5016V10.2466V8.2466H154.686H110.701H108.701V10.2466V22.5016ZM161.456 8.2466H159.456V10.2466V72.9466V74.9466H161.456H175.469H177.469V72.9466V50.0091H177.893L190.956 73.9059L191.525 74.9466H192.711H205.161H208.1H208.434H211.923H223.063H224.454L224.938 73.6419L229.157 62.2641H250.542L254.671 73.6295L255.149 74.9466H256.55H271.465H274.403L273.326 72.2136L248.626 9.51355L248.127 8.2466H246.765H232.848H231.487L230.988 9.51233L207.883 68.0497L196.24 48.1729C197.393 47.7324 198.557 47.123 199.727 46.3688C202.051 44.8912 203.954 42.7383 205.474 40.0132C207.12 37.1191 207.869 33.5188 207.869 29.3416C207.869 25.0747 206.987 21.2937 205.13 18.081C203.298 14.9098 200.76 12.4576 197.544 10.76C194.372 9.06934 190.814 8.2466 186.916 8.2466H161.456ZM187.523 24.835L187.53 24.8393L187.536 24.8435C188.659 25.5737 189.476 26.9851 189.476 29.7691C189.476 32.5337 188.655 33.9754 187.486 34.7441C185.952 35.7401 184.11 36.2716 181.881 36.2716H177.469V23.3141H181.976C184.208 23.3141 186.028 23.8465 187.523 24.835ZM276.437 8.2466H274.437V10.2466V72.9466V74.9466H276.437H290.449H292.449V72.9466V10.2466V8.2466H290.449H276.437ZM337.597 73.8593L338.155 74.9466H339.377H358.567H360.567V72.9466V10.2466V8.2466H358.567H344.602H342.602V10.2466V49.6721L321.726 9.32747L321.167 8.2466H319.95H300.855H298.855V10.2466V72.9466V74.9466H300.855H314.82H316.82V72.9466V33.3484L337.597 73.8593ZM244.463 46.0091H235.204L239.848 32.9097L244.463 46.0091Z" fill="#212121" stroke="white" stroke-width="4"/>
<path d="M120.102 113.362V112.362H119.102H95.2614H94.2614V113.362V152.053V153.053H95.2614H100.526H101.526V152.053V136.421H116.402H117.402V135.421V131.155V130.155H116.402H101.526V118.628H119.102H120.102V117.628V113.362ZM171.374 153.053H172.851L172.303 151.682L156.832 112.991L156.58 112.362H155.903H150.584H149.907L149.656 112.991L134.185 151.682L133.637 153.053H135.113H139.163C139.812 153.053 140.424 152.867 140.933 152.447C141.352 152.102 141.681 151.679 141.877 151.174L141.878 151.173L145.248 142.469H161.239L164.61 151.173L164.614 151.183C164.818 151.693 165.134 152.132 165.56 152.479C166.068 152.892 166.688 153.053 167.324 153.053H171.374ZM153.03 122.334C153.101 122.149 153.172 121.955 153.242 121.751C153.315 121.947 153.388 122.136 153.462 122.317L159.009 136.689H147.48L153.029 122.336L153.03 122.334ZM199.114 152.053V125.059L219.596 151.718L219.596 151.718L219.605 151.728C219.927 152.136 220.297 152.489 220.729 152.72L220.741 152.726L220.752 152.732C221.213 152.962 221.726 153.053 222.252 153.053H224.898H225.898V152.053V113.362V112.362H224.898H220.308H219.308V113.362V140.295L198.826 113.644L198.82 113.636L198.814 113.629C198.505 113.241 198.14 112.873 197.712 112.663C197.267 112.42 196.723 112.362 196.224 112.362H193.524H192.524V113.362V152.053V153.053H193.524H198.114H199.114V152.053ZM272.296 119.925L272.314 119.896L272.329 119.865L273.598 117.381L273.934 116.724L273.405 116.21C271.973 114.817 270.3 113.754 268.395 113.023C266.485 112.29 264.39 111.93 262.124 111.93C260.096 111.93 258.257 112.243 256.624 112.892L256.621 112.894C255.038 113.531 253.68 114.391 252.567 115.484C251.467 116.565 250.617 117.808 250.025 119.21L250.02 119.221C249.45 120.618 249.163 122.07 249.163 123.568C249.163 125.374 249.438 126.962 250.033 128.296L250.036 128.304L250.04 128.313C250.632 129.575 251.411 130.65 252.385 131.522C253.329 132.369 254.4 133.055 255.59 133.582L255.596 133.584C256.74 134.083 257.903 134.526 259.085 134.914L259.094 134.916L259.103 134.919C260.267 135.277 261.395 135.636 262.487 135.994L262.497 135.997L262.506 136C263.56 136.323 264.477 136.717 265.265 137.176C266.014 137.613 266.594 138.146 267.025 138.771L267.033 138.782L267.041 138.793C267.424 139.317 267.658 140.047 267.658 141.064C267.658 142.012 267.498 142.842 267.195 143.569C266.89 144.3 266.451 144.927 265.874 145.459C265.321 145.967 264.624 146.379 263.763 146.682C262.917 146.98 261.925 147.138 260.774 147.138C259.367 147.138 258.229 146.952 257.331 146.613C256.359 146.22 255.543 145.802 254.876 145.363C254.178 144.891 253.605 144.472 253.152 144.103C252.601 143.636 251.944 143.25 251.216 143.25C250.764 143.25 250.341 143.382 249.968 143.628C249.664 143.824 249.405 144.072 249.192 144.364L249.168 144.397L249.147 144.432L247.635 146.916L247.238 147.567L247.761 148.122C249.315 149.772 251.18 151.079 253.345 152.048L253.355 152.052C255.564 153.013 257.988 153.485 260.612 153.485C262.766 153.485 264.72 153.155 266.459 152.471C268.19 151.797 269.668 150.863 270.874 149.659C272.09 148.461 273.013 147.056 273.639 145.451L273.641 145.447C274.264 143.832 274.572 142.116 274.572 140.308C274.572 138.602 274.285 137.093 273.662 135.823C273.084 134.609 272.301 133.571 271.311 132.722C270.368 131.898 269.294 131.225 268.094 130.702C266.967 130.185 265.804 129.723 264.606 129.318C263.452 128.921 262.316 128.542 261.198 128.182C260.157 127.823 259.229 127.408 258.412 126.941C257.652 126.498 257.057 125.982 256.608 125.4C256.239 124.886 256.023 124.207 256.023 123.298C256.023 122.576 256.153 121.927 256.402 121.341L256.406 121.332C256.654 120.733 257.016 120.218 257.499 119.777C257.996 119.34 258.629 118.98 259.422 118.71L259.43 118.707L259.439 118.704C260.209 118.427 261.125 118.277 262.205 118.277C263.371 118.277 264.304 118.422 265.03 118.679L265.036 118.681C265.868 118.97 266.545 119.283 267.079 119.613L267.094 119.622L267.109 119.631C267.715 119.977 268.185 120.284 268.532 120.553L268.541 120.559L268.549 120.566C269.029 120.92 269.602 121.22 270.224 121.22C270.654 121.22 271.106 121.126 271.499 120.851L271.526 120.832L271.551 120.812C271.851 120.572 272.094 120.262 272.296 119.925Z" fill="#212121" stroke="white" stroke-width="2"/>
</svg>
