<?xml version="1.0" encoding="UTF-8"?>
<!-- Generated by Pixelmator Pro 3.4.3 -->
<svg width="911" height="285" viewBox="0 0 911 285" xmlns="http://www.w3.org/2000/svg">
    <g id="Layer2">
        <g id="Layer1-2">
            <path id="Path" fill="#000000" fill-rule="evenodd" stroke="none" d="M 870.400024 22.76001 C 864.880005 22.76001 860.400024 24.26001 856.97998 27.170013 C 852.929993 30.080002 851.119995 33.600006 851.119995 37.509995 C 850.968811 41.166199 852.57428 44.674438 855.440002 46.949997 C 858.349976 49.710007 865.080017 52.569992 875.820007 56.580002 C 886.559998 60.589996 894.280029 64.709991 899.200012 68.929993 C 907.330017 75.75 911.349976 85.589996 911.349976 98.539993 C 911.349976 111.48999 906.929993 122.119995 898.200012 130.470001 C 889.469971 138.820007 877.919983 143.009995 864.200012 143.009995 C 844.26001 143.009995 828.900024 134.279999 816.559998 116.919998 L 833.820007 100.25 C 840.23999 113.059998 849.820007 118.520004 862.530029 118.520004 C 869.390015 118.520004 873.77002 116.709991 877.780029 113.099991 C 881.715881 109.530029 883.884216 104.410873 883.710022 99.099991 C 883.710022 93.380005 881.299988 88.860001 876.380005 86.009995 C 874.070007 83.639999 867.140015 80.729996 855.799988 76.619995 C 844.460022 72.509995 836.22998 67.619995 831.109985 62.059998 C 825.98999 56.5 823.47998 49.210007 823.47998 40.179993 C 823.47998 28.640015 827.47998 19.100006 836.159973 11.570007 C 843.799988 4.089996 853.929993 0.269989 866.280029 0.269989 C 881.539978 0.269989 895 6.079987 906.840027 15.529999 L 892.580017 33.800003 C 886.049988 26.859985 878.799988 22.660004 870.400024 22.76001 Z M 696.169983 46.949997 L 696.169983 139.690002 L 669.469971 139.690002 L 669.469971 -0.529999 L 687.940002 -0.529999 L 771.450012 94.919998 L 771.450012 2.579987 L 798.140015 2.579987 L 798.140015 143.169998 L 779.580017 143.169998 Z M 616 110.679993 L 559.849976 110.679993 L 547.51001 139.680008 L 519.099976 139.680008 L 578.52002 -0.329987 L 599.52002 -0.329987 L 656.200012 139.669998 L 627.599976 139.669998 Z M 588.400024 39.819992 L 568.48999 89.099991 L 607.48999 89.099991 Z M 479.179993 56.279999 L 521.77002 56.279999 L 521.77002 79.470001 L 479.179993 79.470001 L 479.179993 139.690002 L 452 139.690002 L 452 2.579987 L 524.559998 2.579987 L 524.559998 25.769989 L 479.179993 25.769989 Z M 373.549988 213.759995 L 373.549988 282.690002 L 354.549988 282.690002 L 354.549988 178.470001 L 367.390015 178.470001 L 429.5 249.470001 L 429.5 180.790009 L 449.339996 180.790009 L 449.339996 284.709991 L 435.540009 284.709991 Z M 313.26001 2.579987 L 340 2.579987 L 340 116.470001 L 382.160004 116.470001 L 382.160004 139.660004 L 313.26001 139.660004 Z M 322.589996 282.690002 L 313.940002 261.130005 L 272.23999 261.130005 L 263.059998 282.690002 L 242 282.690002 L 286.160004 178.619995 L 301.160004 178.619995 L 343.899994 282.690002 Z M 293.420013 208.470001 L 279.059998 245.100006 L 308.25 245.100006 Z M 257.529999 2.579987 L 284.230011 2.579987 L 284.230011 139.690002 L 257.529999 139.690002 Z M 204 110.679993 L 147.929993 110.679993 L 135.589996 139.680008 L 107.18 139.680008 L 166.600006 -0.329987 L 186.779999 -0.329987 L 244.289993 139.669998 L 216.399994 139.669998 Z M 176.399994 39.819992 L 156.570007 89.099991 L 196 89.099991 Z M 67.150002 139.690002 L 30.209999 84.589996 L 27.530001 84.589996 L 27.530001 139.690002 L 0 139.690002 L 0 2.579987 L 40 2.579987 C 55.189999 2.579987 66.839996 5.790009 74.57 12.220001 C 83.900002 19.75 88.120003 30.080002 88.120003 43.029999 C 88.120003 55.979996 84 66.119995 75.779999 73.23999 C 70.454903 77.897415 63.906204 80.930573 56.91 81.979996 L 100.07 139.690002 Z M 60.790001 44.740005 C 60.790001 30.990005 52.09 24.160004 34.93 24.160004 L 27.530001 24.160004 L 27.530001 65.720001 L 34.529999 65.720001 C 51.490002 65.720001 60.790001 58.089996 60.790001 44.740005 Z M 209.830002 178.470001 C 218.513947 178.572769 227.051422 180.72084 234.75 184.740005 L 234.75 208.160004 C 226.990005 200.479996 218.559998 196.680008 209.460007 196.680008 C 200.595718 196.587494 192.119461 200.310196 186.190002 206.899994 C 180.490005 213.690002 176.490005 222.110001 176.490005 232.040009 C 176.490005 241.970001 180.490005 250.240005 186.190002 256.880005 C 192.50679 263.369659 201.225052 266.959747 210.279999 266.799988 C 214.654037 266.885895 218.9944 266.019196 223 264.26001 C 227.420761 262.182983 231.397339 259.269318 234.710007 255.679993 L 234.710007 279.029999 C 226.130005 283.029999 217.850006 285.029999 209.789993 285.029999 C 194.720001 285.029999 181.970001 279.959991 171.880005 269.73999 C 161.229996 259.519989 156.009995 247.059998 156.009995 232.220001 C 156.01265 217.953293 161.686035 204.27269 171.780685 194.191177 C 181.875336 184.109665 195.563309 178.454071 209.830002 178.470001 Z M 518.320007 178.619995 L 561.059998 282.690002 L 539.799988 282.690002 L 531.150024 261.130005 L 489.450012 261.130005 L 480.269989 282.690002 L 459.160004 282.690002 L 503.320007 178.619995 Z M 524.880005 245.089996 L 510.880005 208.460007 L 495.880005 245.089996 Z M 636.559998 192.570007 C 642.297913 197.242981 646.894531 203.163101 650 209.880005 C 653.180115 216.673447 654.809448 224.089172 654.77002 231.589996 C 654.72052 239.279602 653.068726 246.874451 649.919983 253.889999 C 646.672546 260.489624 642.012268 266.293579 636.27002 270.890015 C 627.02002 278.730011 614.940002 282.679993 599.940002 282.679993 L 570.940002 282.679993 L 570.940002 180.790009 L 600.109985 180.790009 C 614.936646 180.790009 627.08665 184.716675 636.559998 192.570007 Z M 590.76001 198.020004 L 590.76001 265.470001 L 596.130005 265.470001 C 608.289978 265.470001 617.320007 262.779999 623.280029 257.470001 C 630.219971 251.330002 634.280029 241.470001 634.280029 231.710007 C 634.280029 221.350006 631.179993 212.839996 623.280029 206.350006 C 617.169983 200.830002 608.140015 198.070007 596.130005 198.070007 Z M 713.440002 178.619995 L 755.440002 282.690002 L 734.169983 282.690002 L 725.52002 261.130005 L 683.820007 261.130005 L 675 282.690002 L 653.530029 282.690002 L 698.530029 178.619995 Z M 719.25 245.089996 L 705 208.470001 L 690.219971 245.100006 Z"/>
        </g>
    </g>
</svg>
