<svg width="371" height="175" viewBox="0 0 371 175" fill="none" xmlns="http://www.w3.org/2000/svg">
<path d="M23.9812 9.90316L23.9759 9.90542C19.8452 11.6517 16.2213 14.0938 13.1203 17.2285C10.017 20.3655 7.60979 24.0395 5.8989 28.2319C4.1782 32.4166 3.32715 36.9196 3.32715 41.7201C3.32715 48.1363 4.74317 53.9821 7.61102 59.2117C10.4739 64.4322 14.4774 68.5873 19.5948 71.6511L19.5998 71.654C24.794 74.7434 30.7776 76.2576 37.4846 76.2576C42.4398 76.2576 47.0288 75.3919 51.2256 73.632C55.3919 71.8848 59.0085 69.4382 62.0541 66.2912C65.121 63.1231 67.4792 59.4488 69.1255 55.2844C70.8095 51.0731 71.6422 46.5451 71.6422 41.7201C71.6422 36.922 70.7919 32.421 69.0729 28.2381C67.3942 24.0446 65.003 20.3698 61.9004 17.2324C58.8272 14.0928 55.2001 11.65 51.0386 9.90444C46.8757 8.14489 42.3495 7.27756 37.4846 7.27756C32.6781 7.27756 28.1698 8.14667 23.9812 9.90316ZM45.5474 26.6197L45.5474 26.6198L45.5566 26.6258C47.9169 28.1713 49.7587 30.232 51.0936 32.8449C52.4236 35.4484 53.1072 38.3931 53.1072 41.7201C53.1072 45.045 52.4244 48.0078 51.0916 50.6465C49.7574 53.2568 47.917 55.3157 45.559 56.8603C43.2911 58.335 40.6241 59.1001 37.4846 59.1001C34.3852 59.1001 31.7156 58.339 29.4102 56.8601C27.0864 55.3174 25.2607 53.2592 23.9252 50.6465C22.5924 48.0078 21.9096 45.045 21.9096 41.7201C21.9096 38.3931 22.5932 35.4484 23.9232 32.8449C25.2602 30.2278 27.089 28.1668 29.4172 26.6229C31.7227 25.1146 34.3894 24.3401 37.4846 24.3401C40.6178 24.3401 43.2806 25.1176 45.5474 26.6197ZM76.1647 57.5851V59.5851H78.1647H102.627H104.627V57.5851V45.4726V43.4726H102.627H78.1647H76.1647V45.4726V57.5851ZM107.081 22.6726V24.6726H109.081H122.043V73.1176V75.1176H124.043H138.056H140.056V73.1176V24.6726H153.066H155.066V22.6726V10.4176V8.41756H153.066H109.081H107.081V10.4176V22.6726ZM159.836 8.41756H157.836V10.4176V73.1176V75.1176H159.836H173.848H175.848V73.1176V50.1801H176.272L189.336 74.0769L189.905 75.1176H191.091H203.54H206.48H206.813H210.303H221.442H222.834L223.318 73.8129L227.536 62.4351H248.921L253.05 73.8005L253.529 75.1176H254.93H269.845H272.782L271.706 72.3845L247.006 9.68451L246.507 8.41756H245.145H231.227H229.867L229.367 9.68329L206.263 68.2206L194.62 48.3439C195.773 47.9034 196.936 47.294 198.106 46.5397C200.431 45.0621 202.334 42.9093 203.853 40.1842C205.499 37.2901 206.248 33.6897 206.248 29.5126C206.248 25.2457 205.366 21.4647 203.51 18.252C201.678 15.0808 199.14 12.6286 195.923 10.931C192.752 9.2403 189.193 8.41756 185.296 8.41756H159.836ZM185.903 25.006L185.909 25.0102L185.916 25.0144C187.039 25.7446 187.856 27.156 187.856 29.9401C187.856 32.7047 187.035 34.1464 185.865 34.9151C184.332 35.911 182.49 36.4426 180.261 36.4426H175.848V23.4851H180.356C182.587 23.4851 184.407 24.0175 185.903 25.006ZM274.816 8.41756H272.816V10.4176V73.1176V75.1176H274.816H288.829H290.829V73.1176V10.4176V8.41756H288.829H274.816ZM335.977 74.0303L336.535 75.1176H337.757H356.947H358.947V73.1176V10.4176V8.41756H356.947H342.982H340.982V10.4176V49.843L320.105 9.49842L319.546 8.41756H318.329H299.234H297.234V10.4176V73.1176V75.1176H299.234H313.199H315.199V73.1176V33.5194L335.977 74.0303ZM242.842 46.1801H233.584L238.228 33.0806L242.842 46.1801Z" fill="white" stroke="#212121" stroke-width="4"/>
<path d="M118.482 113.533V112.533H117.482H93.641H92.641V113.533V152.224V153.224H93.641H98.906H99.906V152.224V136.592H114.782H115.782V135.592V131.326V130.326H114.782H99.906V118.799H117.482H118.482V117.799V113.533ZM169.754 153.224H171.231L170.683 151.853L155.212 113.162L154.96 112.533H154.283H148.964H148.287L148.035 113.162L132.564 151.853L132.016 153.224H133.493H137.543C138.192 153.224 138.804 153.038 139.313 152.618C139.732 152.273 140.061 151.85 140.257 151.345L140.257 151.343L143.628 142.64H159.619L162.989 151.344L162.994 151.354C163.198 151.864 163.513 152.303 163.939 152.649C164.448 153.063 165.068 153.224 165.704 153.224H169.754ZM151.409 122.505C151.481 122.32 151.551 122.126 151.622 121.922C151.694 122.118 151.768 122.307 151.841 122.488L157.388 136.86H145.86L151.409 122.507L151.409 122.505ZM197.494 152.224V125.23L217.976 151.889L217.976 151.889L217.984 151.899C218.306 152.307 218.677 152.66 219.109 152.891L219.12 152.897L219.132 152.903C219.593 153.133 220.106 153.224 220.632 153.224H223.278H224.278V152.224V113.533V112.533H223.278H218.688H217.688V113.533V140.466L197.206 113.815L197.2 113.807L197.194 113.8C196.884 113.412 196.519 113.044 196.091 112.834C195.647 112.591 195.103 112.533 194.604 112.533H191.904H190.904V113.533V152.224V153.224H191.904H196.494H197.494V152.224ZM270.676 120.096L270.694 120.067L270.709 120.036L271.978 117.552L272.314 116.895L271.785 116.381C270.353 114.988 268.68 113.925 266.775 113.194C264.864 112.46 262.77 112.101 260.504 112.101C258.475 112.101 256.636 112.414 255.004 113.063L255 113.065C253.417 113.702 252.06 114.562 250.947 115.655C249.846 116.736 248.997 117.979 248.404 119.381L248.4 119.392C247.829 120.789 247.543 122.24 247.543 123.739C247.543 125.545 247.817 127.133 248.412 128.467L248.416 128.475L248.42 128.484C249.012 129.746 249.791 130.821 250.764 131.693C251.709 132.54 252.779 133.226 253.97 133.753L253.975 133.755C255.12 134.254 256.283 134.697 257.465 135.085L257.474 135.087L257.482 135.09C258.647 135.448 259.775 135.807 260.867 136.165L260.876 136.168L260.886 136.17C261.94 136.494 262.857 136.888 263.645 137.347C264.393 137.784 264.973 138.317 265.405 138.942L265.412 138.953L265.42 138.964C265.804 139.488 266.038 140.218 266.038 141.235C266.038 142.183 265.877 143.013 265.574 143.74C265.27 144.471 264.831 145.098 264.254 145.63C263.701 146.138 263.004 146.55 262.143 146.853C261.297 147.151 260.305 147.309 259.154 147.309C257.747 147.309 256.609 147.123 255.711 146.784C254.738 146.391 253.923 145.973 253.256 145.534C252.558 145.062 251.985 144.643 251.531 144.274C250.981 143.807 250.324 143.421 249.596 143.421C249.144 143.421 248.721 143.553 248.348 143.799C248.043 143.995 247.784 144.243 247.572 144.535L247.548 144.568L247.526 144.603L246.014 147.087L245.618 147.738L246.141 148.293C247.694 149.942 249.56 151.25 251.725 152.219L251.735 152.223C253.944 153.184 256.367 153.656 258.992 153.656C261.145 153.656 263.1 153.326 264.839 152.642C266.569 151.968 268.048 151.034 269.253 149.83C270.47 148.632 271.393 147.227 272.019 145.622L272.021 145.618C272.643 144.003 272.952 142.287 272.952 140.479C272.952 138.772 272.665 137.264 272.042 135.994C271.464 134.78 270.68 133.742 269.691 132.893C268.748 132.069 267.673 131.396 266.474 130.872C265.347 130.356 264.184 129.894 262.985 129.489C261.832 129.092 260.696 128.713 259.578 128.353C258.536 127.994 257.609 127.579 256.792 127.112C256.032 126.669 255.437 126.153 254.987 125.571C254.618 125.057 254.403 124.378 254.403 123.469C254.403 122.747 254.533 122.098 254.782 121.512L254.785 121.503C255.034 120.904 255.396 120.389 255.879 119.948C256.376 119.511 257.009 119.151 257.801 118.881L257.81 118.878L257.818 118.875C258.588 118.598 259.505 118.448 260.585 118.448C261.75 118.448 262.683 118.593 263.41 118.85L263.416 118.852C264.248 119.141 264.925 119.454 265.459 119.784L265.474 119.793L265.488 119.802C266.094 120.148 266.565 120.455 266.912 120.724L266.921 120.73L266.929 120.737C267.409 121.091 267.981 121.391 268.604 121.391C269.033 121.391 269.486 121.297 269.879 121.022L269.905 121.003L269.93 120.983C270.23 120.743 270.474 120.433 270.676 120.096Z" fill="white" stroke="#212121" stroke-width="2"/>
</svg>
