<svg xmlns="http://www.w3.org/2000/svg" width="911.35px" height="285.53px" viewBox="0 0 911.35 285.53">
  <defs>
    <style>
      .cls-1{fill:#fff;fill-rule:evenodd;}
    </style>
  </defs>
  <g id="Layer_2" data-name="Layer 2">
    <g id="Layer_1-2" data-name="Layer 1">
      <path class="cls-1" d="M870.4,23.29c-5.52,0-10,1.5-13.42,4.41-4.05,2.91-5.86,6.43-5.86,10.34a11.45,11.45,0,0,0,4.32,9.44c2.91,2.76,9.64,5.62,20.38,9.63s18.46,8.13,23.38,12.35c8.13,6.82,12.15,16.66,12.15,29.61S906.93,122.65,898.2,131s-20.28,12.54-34,12.54c-19.94,0-35.3-8.73-47.64-26.09l17.26-16.67c6.42,12.81,16,18.27,28.71,18.27,6.86,0,11.24-1.81,15.25-5.42a18.1,18.1,0,0,0,5.93-14c0-5.72-2.41-10.24-7.33-13.09-2.31-2.37-9.24-5.28-20.58-9.39s-19.57-9-24.69-14.56-7.63-12.85-7.63-21.88c0-11.54,4-21.08,12.68-28.61C843.8,4.62,853.93.8,866.28.8,881.54.8,895,6.61,906.84,16.06L892.58,34.33C886.05,27.39,878.8,23.19,870.4,23.29ZM696.17,47.48v92.74h-26.7V0h18.47l83.51,95.45V3.11h26.69V143.7H779.58ZM616,111.21H559.85l-12.34,29H519.1L578.52.2h21l56.68,140h-28.6Zm-27.6-70.86L568.49,89.63h39ZM479.18,56.81h42.59V80H479.18v60.22H452V3.11h72.56V26.3H479.18ZM373.55,214.29v68.93h-19V179h12.84L429.5,250V181.32h19.84V285.24h-13.8ZM313.26,3.11H340V117h42.16v23.19H313.26Zm9.33,280.11-8.65-21.56h-41.7l-9.18,21.56H242l44.16-104.07h15l42.74,104.07ZM293.42,209l-14.36,36.63h29.19ZM257.53,3.11h26.7V140.22h-26.7ZM204,111.21H147.93l-12.34,29H107.18L166.6.2h20.18l57.51,140H216.4Zm-27.6-70.86L156.57,89.63H196ZM67.15,140.22,30.21,85.12H27.53v55.1H0V3.11H40c15.19,0,26.84,3.21,34.57,9.64,9.33,7.53,13.55,17.86,13.55,30.81S84,66.65,75.78,73.77a37,37,0,0,1-18.87,8.74l43.16,57.71ZM60.79,45.27c0-13.75-8.7-20.58-25.86-20.58h-7.4V66.25h7C51.49,66.25,60.79,58.62,60.79,45.27ZM209.83,179a55.26,55.26,0,0,1,24.92,6.27v23.42c-7.76-7.68-16.19-11.48-25.29-11.48a30.87,30.87,0,0,0-23.27,10.22c-5.7,6.79-9.7,15.21-9.7,25.14s4,18.2,9.7,24.84a32.81,32.81,0,0,0,24.09,9.92A30.16,30.16,0,0,0,223,264.79a37.82,37.82,0,0,0,11.71-8.58v23.35c-8.58,4-16.86,6-24.92,6-15.07,0-27.82-5.07-37.91-15.29-10.65-10.22-15.87-22.68-15.87-37.52A53.76,53.76,0,0,1,209.83,179Zm308.49.15,42.74,104.07H539.8l-8.65-21.56h-41.7l-9.18,21.56H459.16l44.16-104.07Zm6.56,66.47-14-36.63-15,36.63ZM636.56,193.1A48.66,48.66,0,0,1,650,210.41a50.58,50.58,0,0,1,4.77,21.71,55.33,55.33,0,0,1-4.85,22.3,50.12,50.12,0,0,1-13.65,17c-9.25,7.84-21.33,11.79-36.33,11.79h-29V181.32h29.17Q622.35,181.32,636.56,193.1Zm-45.8,5.45V266h5.37c12.16,0,21.19-2.69,27.15-8,6.94-6.14,11-16,11-25.76,0-10.36-3.1-18.87-11-25.36-6.11-5.52-15.14-8.28-27.15-8.28Zm122.68-19.4,42,104.07H734.17l-8.65-21.56h-41.7L675,283.22H653.53l45-104.07Zm5.81,66.47L705,209l-14.78,36.63Z"/>
    </g>
  </g>
</svg>
