<svg width="322" height="322" viewBox="0 0 322 322" fill="none" xmlns="http://www.w3.org/2000/svg">
<g clip-path="url(#clip0)">
<path d="M213.398 200L207.398 203L210.398 218.5V225.5L213.398 227.5L223.398 230.5L227.898 226.5L228.898 222.5L226.898 211L226.398 209.5L213.398 200Z" fill="black" stroke="black" stroke-linejoin="bevel"/>
<path d="M70.4784 83.0865C70.4784 83.0865 127.232 81.8892 159.232 125.889L195.232 174.333C195.232 174.333 208.565 192.556 209.898 220.111H70.4784" fill="#EA0003"/>
<path d="M75.4543 241.223C75.4543 255.704 63.7143 267.444 49.2317 267.444C34.7503 267.444 23.0103 255.704 23.0103 241.223C23.0103 226.74 34.7503 215 49.2317 215C63.7143 215 75.4543 226.74 75.4543 241.223Z" fill="black"/>
<path d="M70.4784 206.333H-786.334V83.086H70.4784V206.333Z" fill="#EA0003"/>
<path d="M118.343 246.333H-786.333V220.111H103.676L121.01 236.408L118.343 246.333Z" fill="#404040"/>
<path d="M64.3984 177.278H-18.3789V114.733H64.3984V177.278Z" fill="#606277" stroke="black" stroke-width="3"/>
<path d="M180.688 176.952C180.763 177.063 180.836 177.172 180.906 177.277H105.176V114.907C114.617 116.131 123.969 120.415 132.779 126.317C142.089 132.554 150.71 140.542 158.079 148.447C165.444 156.348 171.531 164.137 175.777 169.953C177.9 172.859 179.56 175.27 180.688 176.952Z" fill="#606277" stroke="black" stroke-width="3"/>
<path d="M71.3984 220.111H-786.333V206.334H71.3984V220.111Z" fill="white"/>
<path d="M209.898 220.111C209.898 220.111 206.788 250.777 171.232 252.111C135.676 253.444 129.009 252.111 129.009 252.111L118.342 246.333L121.009 236.408L103.676 220.111H209.898Z" fill="#A0A0A0"/>
<path d="M-8.32373 238.333L7.67627 220.111H-8.32373V238.333Z" fill="#A0A0A0"/>
<path d="M71.3983 208.833L73.065 211.333L74.565 207.833L75.4543 209.583L78.3983 207.833V210.5L80.565 211.333L77.3983 215H80.565L79.565 216.167L82.8983 217.333L79.2316 218.5L79.8983 220.111H71.3983" fill="white"/>
<path d="M-786.333 83.0865L-758.507 74.0425H49.2319L70.4785 83.0865H-786.333Z" fill="white"/>
<path d="M127.898 123V177.5" stroke="black" stroke-width="3"/>
<path d="M127.898 164H104.898" stroke="black" stroke-width="3"/>
<rect width="21" height="15" transform="matrix(-1 0 0 1 63.8984 115)" fill="black"/>
<path d="M225.398 228C226.898 228.333 230.198 229.2 231.398 230C232.598 230.8 237.232 233.667 239.398 235" stroke="black"/>
</g>
<defs>
<clipPath id="clip0">
<rect width="322" height="322" fill="white" transform="matrix(-1 0 0 1 322 0)"/>
</clipPath>
</defs>
</svg>
