<?xml version="1.0" encoding="UTF-8"?>
<svg id="Layer_2" data-name="Layer 2" xmlns="http://www.w3.org/2000/svg" viewBox="0 0 90 90">
  <defs>
    <style>
      .cls-1 {
        fill: none;
      }

      .cls-1, .cls-2, .cls-3, .cls-4 {
        stroke-width: 0px;
      }

      .cls-2 {
        fill: #8aff80;
      }

      .cls-3 {
        fill: #f2f2f2;
      }

      .cls-4 {
        opacity: .85;
      }
    </style>
  </defs>
  <g id="Layer_1-2" data-name="Layer 1">
    <g>
      <circle class="cls-2" cx="45" cy="45" r="40"/>
      <circle class="cls-4" cx="45" cy="45" r="35"/>
      <rect class="cls-1" width="90" height="90"/>
      <g>
        <path class="cls-3" d="m35.73,29.54v30.92h-8.39v-21.2h-.3c-.28.37-.69.73-1.23,1.09-.54.35-1.21.64-2.03.87s-1.78.34-2.9.34v-6.58c.87,0,1.68-.14,2.45-.43.77-.29,1.45-.68,2.05-1.19.59-.5,1.06-1.08,1.4-1.74.34-.65.51-1.35.51-2.08h8.46Z"/>
        <path class="cls-3" d="m55.54,61.31c-2.81,0-5.24-.66-7.28-1.95-2.04-1.29-3.62-3.15-4.73-5.57-1.11-2.43-1.66-5.33-1.65-8.73,0-3.4.57-6.29,1.67-8.67,1.1-2.38,2.67-4.18,4.71-5.42,2.04-1.24,4.46-1.86,7.27-1.86s5.23.62,7.28,1.86c2.04,1.24,3.62,3.05,4.73,5.43,1.11,2.38,1.66,5.26,1.65,8.65,0,3.41-.55,6.33-1.66,8.76s-2.68,4.28-4.72,5.56c-2.04,1.28-4.46,1.93-7.27,1.93Zm0-6.83c1.45,0,2.64-.76,3.57-2.27.93-1.51,1.39-3.9,1.38-7.15,0-2.12-.21-3.86-.63-5.21s-1.01-2.35-1.75-3c-.75-.65-1.6-.97-2.57-.97-1.45,0-2.63.74-3.55,2.21s-1.38,3.79-1.4,6.98c0,2.17.2,3.94.62,5.34.42,1.39,1.01,2.42,1.76,3.09.75.67,1.61,1,2.58,1Z"/>
      </g>
    </g>
  </g>
</svg>