<?xml version="1.0" encoding="UTF-8"?>
<svg id="Layer_2" data-name="Layer 2" xmlns="http://www.w3.org/2000/svg" viewBox="0 0 90 90">
  <defs>
    <style>
      .cls-1 {
        fill: none;
      }

      .cls-1, .cls-2, .cls-3, .cls-4 {
        stroke-width: 0px;
      }

      .cls-2 {
        fill: #c89800;
      }

      .cls-3 {
        fill: #f2f2f2;
      }

      .cls-4 {
        opacity: .85;
      }
    </style>
  </defs>
  <g id="Layer_1-2" data-name="Layer 1">
    <g>
      <circle class="cls-2" cx="45" cy="45" r="40"/>
      <circle class="cls-4" cx="45" cy="45" r="35"/>
      <path class="cls-3" d="m27.85,53.05h11.27c.03.79.29,1.5.79,2.12.5.62,1.16,1.11,1.99,1.46.83.35,1.76.52,2.78.52,1.07,0,2-.19,2.79-.57s1.39-.9,1.81-1.56c.42-.66.63-1.4.63-2.21,0-.9-.25-1.67-.75-2.31-.5-.64-1.2-1.12-2.08-1.46-.89-.34-1.9-.5-3.04-.5h-5.23v-7.41l8.38-7.57v-.24h-17.23v-8.94h30.52v8.05l-11.11,9.74v.32c2.44.29,4.47.83,6.07,1.61s2.87,1.7,3.79,2.77c.92,1.07,1.57,2.2,1.96,3.39.39,1.2.58,2.36.58,3.5,0,2.5-.75,4.67-2.26,6.53-1.51,1.86-3.55,3.3-6.13,4.33-2.58,1.03-5.47,1.54-8.68,1.54-3.4,0-6.35-.56-8.86-1.69-2.51-1.13-4.46-2.68-5.85-4.65-1.39-1.97-2.1-4.23-2.12-6.79Z"/>
      <rect class="cls-1" width="90" height="90"/>
    </g>
  </g>
</svg>