<?xml version="1.0" encoding="UTF-8"?>
<svg id="Layer_2" data-name="Layer 2" xmlns="http://www.w3.org/2000/svg" viewBox="0 0 200 100">
  <defs>
    <style>
      .cls-1 {
        fill: none;
      }

      .cls-1, .cls-2 {
        stroke-width: 0px;
      }

      .cls-2 {
        fill: #ba0000;
      }
    </style>
  </defs>
  <g id="Layer_1-2" data-name="Layer 1">
    <g>
      <rect class="cls-1" width="200" height="100"/>
      <g>
        <path class="cls-2" d="m51.3,90.83c-17.9-1.1-37.37-16.89-37.27-41.01.11-24.09,19.66-39.59,37.27-40.64v81.64Z"/>
        <path class="cls-2" d="m58.97,53.82h37.28v37.26h-37.28v-37.26Z"/>
        <path class="cls-2" d="m58.97,9.17c18.97,1.22,35.77,17.64,37.03,37h-37.03V9.17Z"/>
        <g>
          <path class="cls-2" d="m129.04,46.17c1.73-7.23,8.23-12.62,15.98-12.62s14.25,5.39,15.98,12.62h24.96c-1.93-20.91-19.52-37.29-40.94-37.29s-39,16.38-40.94,37.29h24.96Z"/>
          <path class="cls-2" d="m161,53.82c-1.73,7.23-8.23,12.63-15.98,12.63s-14.25-5.4-15.98-12.63h-24.95c1.93,20.92,19.52,37.3,40.94,37.3s39.01-16.38,40.94-37.3h-24.95Z"/>
        </g>
      </g>
    </g>
  </g>
</svg>