<?xml version="1.0" encoding="UTF-8"?>
<svg id="Layer_2" data-name="Layer 2" xmlns="http://www.w3.org/2000/svg" viewBox="0 0 90 90">
  <defs>
    <style>
      .cls-1 {
        fill: none;
      }

      .cls-1, .cls-2, .cls-3 {
        stroke-width: 0px;
      }

      .cls-2 {
        fill: #ba0000;
      }

      .cls-3 {
        fill: #f2f2f2;
      }
    </style>
  </defs>
  <g id="Layer_1-2" data-name="Layer 1">
    <g>
      <g>
        <g>
          <path class="cls-2" d="m13.47,68.99C1.42,53.23,2.82,31.16,16.98,16.99c7.48-7.48,17.43-11.6,28-11.6,8.68,0,17.14,2.86,24,8.09l-15.65,15.65c-2.57-1.35-5.43-2.05-8.36-2.05-4.79,0-9.29,1.86-12.67,5.24-5.6,5.6-6.84,14.09-3.19,21.03l-15.65,15.65Z"/>
          <path class="cls-3" d="m44.99,3.88v3c7.78,0,15.36,2.39,21.7,6.77l-13.65,13.65c-2.52-1.14-5.26-1.74-8.06-1.74-5.19,0-10.07,2.02-13.73,5.68-5.8,5.8-7.28,14.47-3.94,21.79l-13.65,13.65c-4.72-6.81-7.1-14.98-6.73-23.36.41-9.55,4.36-18.53,11.12-25.29,7.2-7.2,16.77-11.16,26.94-11.16v-3m0,0c-10.52,0-21.04,4.01-29.07,12.04C.78,31.07-.07,55.08,13.35,71.24l17.65-17.65c-3.88-6.33-3.1-14.74,2.38-20.22,3.2-3.2,7.4-4.8,11.61-4.8,2.99,0,5.98.81,8.62,2.42l17.65-17.65c-7.59-6.31-16.92-9.46-26.25-9.46h0Z"/>
        </g>
        <g>
          <path class="cls-2" d="m45.01,84.62c-8.68,0-17.15-2.86-24.01-8.1l15.65-15.65c2.57,1.35,5.44,2.06,8.37,2.06,4.79,0,9.29-1.86,12.67-5.24,5.61-5.61,6.84-14.11,3.18-21.04l15.65-15.65c12.06,15.76,10.67,37.84-3.5,52.02-7.48,7.48-17.43,11.6-28.01,11.6Z"/>
          <path class="cls-3" d="m76.34,23.3c4.72,6.81,7.1,14.98,6.74,23.36-.41,9.55-4.36,18.53-11.12,25.29-7.2,7.2-16.77,11.16-26.95,11.16-7.78,0-15.37-2.39-21.71-6.78l13.65-13.65c2.52,1.15,5.27,1.74,8.07,1.74,5.19,0,10.07-2.02,13.73-5.68,5.81-5.81,7.29-14.48,3.94-21.8l13.65-13.65m.31-4.55l-17.65,17.65c3.89,6.34,3.11,14.75-2.37,20.23-3.2,3.2-7.4,4.8-11.61,4.8-2.99,0-5.99-.81-8.62-2.43l-17.65,17.65c7.59,6.31,16.93,9.47,26.26,9.47,10.52,0,21.04-4.01,29.07-12.04,15.15-15.15,16-39.17,2.57-55.32h0Z"/>
        </g>
      </g>
      <rect class="cls-1" width="90" height="90"/>
    </g>
  </g>
</svg>