<?xml version="1.0" encoding="UTF-8"?>
<svg id="Layer_2" data-name="Layer 2" xmlns="http://www.w3.org/2000/svg" viewBox="0 0 180 100">
  <defs>
    <style>
      .cls-1 {
        fill: none;
      }

      .cls-1, .cls-2, .cls-3 {
        stroke-width: 0px;
      }

      .cls-2 {
        fill: #fcce00;
      }

      .cls-3 {
        fill: #fff;
      }
    </style>
  </defs>
  <g id="Layer_1-2" data-name="Layer 1">
    <g>
      <rect class="cls-1" width="180" height="100"/>
      <rect class="cls-2" x="10" y="10" width="160" height="80"/>
      <g>
        <path class="cls-3" d="m47.52,57.24c1.62-2.72,13.22-22.1,17.38-29.09.28-.47.58-.64,1.13-.64,6.1.02,12.2.01,18.29.01.24,0,.49,0,.86,0-.24.42-.41.73-.59,1.04-8.3,14.43-16.59,28.87-24.87,43.31-.27.46-.54.62-1.07.62-9.5-.02-19.01-.02-28.51,0-.61,0-.81-.12-.81-.78.02-14.48.02-28.96,0-43.44,0-.66.21-.78.81-.77,5.5.02,11,.02,16.5,0,.6,0,.76.13.76.75-.02,9.4-.02,18.8-.02,28.2v.74s.09.03.13.04Z"/>
        <path class="cls-3" d="m132.5,42.74c-.46.77-12.09,20.22-17.47,29.23-.21.35-.41.52-.85.52-6.28-.02-12.56-.01-18.84-.01-.13,0-.27-.01-.4-.02-.06-.26.12-.41.21-.58,8.35-14.53,16.7-29.06,25.03-43.61.32-.57.66-.78,1.33-.77,9.43.03,18.87.03,28.3,0,.73,0,.85.21.84.88-.02,14.43-.02,28.86,0,43.29,0,.66-.15.83-.82.83-5.5-.03-11-.03-16.5,0-.61,0-.76-.16-.75-.76.02-9.4.01-18.8.01-28.19,0-.24.07-.49-.09-.8Z"/>
        <path class="cls-3" d="m66.12,72.48c.84-1.44,1.62-2.79,2.4-4.13,7.78-13.35,15.56-26.7,23.32-40.07.35-.61.73-.78,1.4-.78,6.51.03,13.02.01,19.53.02.24,0,.5-.07.8.1-.5.86-.98,1.71-1.47,2.56-8.09,13.89-16.19,27.78-24.26,41.67-.28.48-.57.65-1.13.65-6.6-.02-13.21-.01-19.81-.01-.22,0-.44,0-.78,0Z"/>
      </g>
    </g>
  </g>
</svg>