<?xml version="1.0" encoding="UTF-8" standalone="no"?>
<!-- Created with Inkscape (http://www.inkscape.org/) -->

<svg
   xmlns:dc="http://purl.org/dc/elements/1.1/"
   xmlns:cc="http://creativecommons.org/ns#"
   xmlns:rdf="http://www.w3.org/1999/02/22-rdf-syntax-ns#"
   xmlns:svg="http://www.w3.org/2000/svg"
   xmlns="http://www.w3.org/2000/svg"
   xmlns:sodipodi="http://sodipodi.sourceforge.net/DTD/sodipodi-0.dtd"
   xmlns:inkscape="http://www.inkscape.org/namespaces/inkscape"
   version="1.1"
   id="svg815"
   width="570.1933"
   height="235.08638"
   viewBox="0 0 570.1933 235.08638"
   sodipodi:docname="logo_dark.svg"
   inkscape:version="0.92.4 (5da689c313, 2019-01-14)">
  <metadata
     id="metadata821">
    <rdf:RDF>
      <cc:Work
         rdf:about="">
        <dc:format>image/svg+xml</dc:format>
        <dc:type
           rdf:resource="http://purl.org/dc/dcmitype/StillImage" />
        <dc:title></dc:title>
      </cc:Work>
    </rdf:RDF>
  </metadata>
  <defs
     id="defs819" />
  <sodipodi:namedview
     pagecolor="#ffffff"
     bordercolor="#666666"
     borderopacity="1"
     objecttolerance="10"
     gridtolerance="10"
     guidetolerance="10"
     inkscape:pageopacity="0"
     inkscape:pageshadow="2"
     inkscape:window-width="1920"
     inkscape:window-height="1017"
     id="namedview817"
     showgrid="false"
     fit-margin-top="0"
     fit-margin-left="0"
     fit-margin-right="0"
     fit-margin-bottom="0"
     inkscape:zoom="0.55520977"
     inkscape:cx="-182.58832"
     inkscape:cy="-0.26965686"
     inkscape:window-x="1912"
     inkscape:window-y="-8"
     inkscape:window-maximized="1"
     inkscape:current-layer="svg815" />
  <path
     style="fill:#212121;fill-opacity:1;stroke:#ffffff;stroke-width:2;stroke-miterlimit:4;stroke-dasharray:none;paint-order:stroke fill markers"
     d="m 144.19328,202.35798 v -31.5 h 19 19 v 3.5 3.5 h -15 -15 v 10.97012 10.97013 l 12.75,0.27987 12.75,0.27988 0.31336,3.25 0.31336,3.25 h -13.06336 -13.06336 v 13.5 13.5 h -4 -4 z m 77.14571,11.31608 c 4.36826,-11.10115 9.88417,-25.16365 12.25759,-31.25 l 4.31529,-11.06608 4.39071,-0.28102 4.3907,-0.28101 12,30.66948 c 6.6,16.86821 12.15939,31.08534 12.3542,31.5936 0.1948,0.50827 -1.58187,0.78346 -3.94816,0.61154 l -4.30236,-0.31259 -3.19947,-8 -3.19948,-8 -13.93401,-0.27643 -13.93401,-0.27643 -2.81364,7.27643 c -3.59637,9.30065 -4.01216,9.77643 -8.5438,9.77643 h -3.77585 z m 30.17625,-9.56608 c -1.42363,-3.7125 -4.06496,-10.8 -5.86962,-15.75 -1.80467,-4.95 -3.50448,-8.325 -3.77737,-7.5 -0.27289,0.825 -2.78639,7.61916 -5.58556,15.09814 -2.79918,7.47898 -5.08941,13.89148 -5.08941,14.25 0,0.35852 5.15483,0.65186 11.45519,0.65186 h 11.45518 z m 55.67804,-1.75 v -31.5 h 2.80536 c 2.48841,0 4.82508,2.66106 20.68245,23.55374 9.8324,12.95456 18.13249,23.71209 18.44464,23.90561 0.31215,0.19352 0.43947,-10.40566 0.28292,-23.55374 l -0.28462,-23.90561 h 4.03462 4.03463 v 31.56336 31.56336 l -3.23114,-0.31336 c -3.50932,-0.34034 -3.96554,-0.87266 -28.51886,-33.27617 l -11.25,-14.84685 v 24.15483 24.15483 h -3.5 -3.5 z m 97.5,30.29345 c -3.45126,-1.2064 -9.5,-5.49371 -9.5,-6.73356 0,-0.46108 0.80824,-1.83646 1.79609,-3.0564 l 1.79609,-2.21807 4.89969,3.10729 c 4.02757,2.55421 5.93001,3.10729 10.68813,3.10729 7.46976,0 11.6409,-3.24358 12.51053,-9.72849 0.50521,-3.76741 0.24064,-4.53338 -2.4263,-7.02468 -1.64633,-1.53791 -5.64178,-3.62629 -8.87878,-4.64085 -12.04729,-3.77593 -16.51662,-7.45781 -17.88099,-14.73052 -1.39618,-7.44229 3.5694,-16.08407 10.81064,-18.81413 4.69207,-1.76898 14.31248,-1.30032 18.47474,0.89999 6.43799,3.40334 6.44995,3.4183 5.10081,6.37932 -1.4524,3.18768 -1.85855,3.22655 -6.89065,0.65936 -2.40833,-1.22864 -5.89377,-2 -9.03709,-2 -4.32203,0 -5.57076,0.45401 -8.03983,2.92308 -1.90604,1.90604 -2.92308,3.94672 -2.92308,5.86514 0,4.94527 3.14812,7.65935 13.00823,11.21475 10.36961,3.73911 14.35428,6.91584 15.90681,12.68152 2.3699,8.80114 -2.81357,19.07189 -11.23014,22.25189 -3.52706,1.33262 -14.20372,1.2487 -18.1849,-0.14293 z M 41.693283,107.6877 C 23.922273,104.32332 7.5522328,88.623213 2.6857728,70.276533 c -2.56323,-9.66345 -2.13671,-23.64681 1.00692,-33.01153 12.5229802,-37.30531016 59.4082302,-48.58614 86.8311702,-20.89202 10.697907,10.80371 15.639857,22.96436 15.639857,38.485 0,15.32809 -5.06862,27.97348 -15.470437,38.59621 -12.20986,12.469177 -30.40373,17.754127 -49,14.233507 z m 24.09468,-24.620967 c 9.22197,-4.70914 14.40532,-14.85927 14.40532,-28.20875 0,-10.52471 -2.70031,-17.80242 -8.89327,-23.96857 -6.97227,-6.94208 -17.10852,-8.95383 -27.41684,-5.44143 -5.96688,2.03312 -12.87369,9.53327 -15.36941,16.68976 -2.84779,8.16605 -2.42733,20.70238 0.92972,27.72024 1.44704,3.025 3.22021,6.19331 3.94039,7.04069 2.47578,2.91307 8.31459,6.79135 11.80941,7.84411 5.32882,1.60522 15.8449,0.74939 20.59468,-1.67605 z m 251.405317,23.043067 -12.5,-0.31352 -15.5,-19.996977 -15.5,-19.99698 -0.27071,20.02783 -0.2707,20.027827 h -11.9793 -11.97929 V 53.779873 1.7017628 l 24.25,0.32811 c 22.75307,0.30786 24.55525,0.46885 29.19495,2.60811 10.54573,4.8624 15.6952,11.2013502 17.6383,21.7125402 2.74485,14.84825 -4.31328,29.49346 -16.88785,35.04135 l -3.99598,1.76302 15.52003,18.60155 c 8.53602,10.23084 15.80365,18.707477 16.15029,18.836957 0.34664,0.12948 6.21915,-13.595517 13.05001,-30.499997 6.83086,-16.90448 15.77147,-38.94792 19.86804,-48.98542 l 7.44829,-18.2500002 h 11.21069 11.21069 l 8.60955,21.2500002 c 4.73526,11.6875 14.22562,35.0875 21.08969,52 l 12.48014,30.749997 h -12.81358 -12.81357 l -3.85485,-10.494177 -3.85484,-10.49418 -20.14121,-0.006 -20.14122,-0.006 -3.74095,10.5 -3.74096,10.499997 -12.61783,-0.21733 c -6.93981,-0.11917 -18.24283,-0.35806 -25.11783,-0.53049 z m 77,-41.675227 c 0,-0.61998 -11.05416,-28.96408 -11.45054,-29.36046 -0.3112,-0.31121 -9.39246,22.46119 -10.98005,27.53387 -0.70238,2.24424 -0.67459,2.25 10.8632,2.25 6.36207,0 11.56739,-0.19053 11.56739,-0.42341 z m -105.5343,-17.99781 c 9.23783,-3.85981 8.87357,-21.02483 -0.51508,-24.27234 -1.89784,-0.65645 -6.03812,-1.21895 -9.20062,-1.25 l -5.75,-0.05644 v 13.5 13.5 h 6.03212 c 3.31766,0 7.56278,-0.63955 9.43358,-1.42122 z m 151.5343,7.92122 V 1.8579828 h 12 12 V 54.357983 106.85798 h -12 -12 z m 39,0 V 1.8579828 h 11.90343 11.90343 l 20.84657,32.3933002 20.84657,32.3933 0.26366,-32.3933 0.26367,-32.3933002 h 11.98633 11.98634 V 54.357983 106.85798 H 557.2689 545.34452 l -20.82562,-32.402037 -20.82562,-32.40204 -0.26366,32.40204 -0.26367,32.402037 h -11.98633 -11.98634 z m -288,10 v -41.5 h -12.5 -12.5 v -10.5 -10.5000002 h 37 37 v 10.5000002 10.5 h -12.5 -12.5 v 41.5 41.499997 h -12 -12 z m -74,6 v -9.5 h 20.5 20.5 v 9.5 9.5 h -20.5 -20.5 z"
     id="path825"
     inkscape:connector-curvature="0" />
</svg>
