<?xml version="1.0" encoding="UTF-8" standalone="no"?>
<svg
   width="32"
   height="32"
   viewBox="0 0 8.4666665 8.4666669"
   version="1.1"
   id="svg3963"
   inkscape:export-filename="\\wsl$\Ubuntu\home\derek\projects\OTrainMap\src\images\line2.png"
   inkscape:export-xdpi="48.000004"
   inkscape:export-ydpi="48.000004"
   inkscape:version="1.2-beta (1b65182ce9, 2022-04-05)"
   sodipodi:docname="line2.svg"
   xmlns:inkscape="http://www.inkscape.org/namespaces/inkscape"
   xmlns:sodipodi="http://sodipodi.sourceforge.net/DTD/sodipodi-0.dtd"
   xmlns="http://www.w3.org/2000/svg"
   xmlns:svg="http://www.w3.org/2000/svg"
   xmlns:rdf="http://www.w3.org/1999/02/22-rdf-syntax-ns#"
   xmlns:cc="http://creativecommons.org/ns#"
   xmlns:dc="http://purl.org/dc/elements/1.1/">
  <defs
     id="defs3957" />
  <sodipodi:namedview
     id="base"
     pagecolor="#ffffff"
     bordercolor="#666666"
     borderopacity="1.0"
     inkscape:pageopacity="0.0"
     inkscape:pageshadow="2"
     inkscape:zoom="7.9195959"
     inkscape:cx="19.445437"
     inkscape:cy="10.732871"
     inkscape:document-units="mm"
     inkscape:current-layer="g4534"
     inkscape:document-rotation="0"
     showgrid="false"
     units="px"
     lock-margins="true"
     fit-margin-top="2"
     fit-margin-left="2"
     fit-margin-right="2"
     fit-margin-bottom="2"
     inkscape:window-width="1920"
     inkscape:window-height="1017"
     inkscape:window-x="-8"
     inkscape:window-y="-8"
     inkscape:window-maximized="1"
     inkscape:pagecheckerboard="true"
     inkscape:deskcolor="#d1d1d1" />
  <metadata
     id="metadata3960">
    <rdf:RDF>
      <cc:Work
         rdf:about="">
        <dc:format>image/svg+xml</dc:format>
        <dc:type
           rdf:resource="http://purl.org/dc/dcmitype/StillImage" />
        <dc:title />
      </cc:Work>
    </rdf:RDF>
  </metadata>
  <g
     inkscape:label="Layer 1"
     inkscape:groupmode="layer"
     id="layer1"
     transform="translate(-25.24881,-32.808334)">
    <g
       id="g4534"
       transform="translate(18.294048,32.142151)"
       style="stroke-width:1.05833;stroke-miterlimit:4;stroke-dasharray:none">
      <circle
         style="fill:#16a753;fill-opacity:1;stroke:#ffffff;stroke-width:1.05833333;stroke-miterlimit:4;stroke-dasharray:none;paint-order:stroke fill markers"
         id="path3313-5"
         cx="11.188095"
         cy="4.8995161"
         r="3.175" />
      <g
         aria-label="2"
         id="text3884-2"
         style="font-size:5.51799px;line-height:1.25;letter-spacing:0px;word-spacing:0px;fill:#ffffff">
        <path
           d="M 12.581065,6.8879323 V 6.2870965 h -1.721678 l 0.738247,-0.7813561 q 0.191297,-0.1966861 0.347568,-0.374512 0.156272,-0.1805202 0.269434,-0.3529574 0.110467,-0.1724371 0.169742,-0.3475687 0.06197,-0.1778258 0.06197,-0.3718177 0,-0.2559614 -0.08083,-0.4661192 Q 12.284688,3.3799132 12.131111,3.2290307 11.97484,3.0781481 11.743128,2.9946238 11.51411,2.9110996 11.215039,2.9110996 q -0.312543,0 -0.571198,0.1023846 -0.255962,0.09969 -0.436482,0.2748217 -0.183215,0.1751316 -0.2829048,0.4095384 -0.09969,0.2317124 -0.09969,0.4930626 h 0.7517181 q 0,-0.1589656 0.04041,-0.2829048 0.04041,-0.1239392 0.118551,-0.2074635 0.07544,-0.08083 0.188603,-0.1212449 0.115856,-0.043109 0.266739,-0.043109 0.115856,0 0.210158,0.037721 0.097,0.037721 0.167048,0.1077733 0.06736,0.072747 0.105079,0.1751315 0.03772,0.1023846 0.03772,0.2344068 0,0.088913 -0.02964,0.1832145 -0.02694,0.094302 -0.08891,0.2020749 -0.06466,0.1104675 -0.167048,0.2424898 -0.102385,0.1320222 -0.250573,0.293682 L 9.9055938,6.3760094 v 0.5119229 z"
           style="font-weight:bold;font-family:'Roboto Mono';-inkscape-font-specification:'Roboto Mono Bold';text-align:center;text-anchor:middle"
           id="path567" />
      </g>
    </g>
  </g>
</svg>
