<?xml version="1.0" encoding="UTF-8" standalone="no"?>
<svg
   width="32"
   height="32"
   viewBox="0 0 8.4666665 8.4666669"
   version="1.1"
   id="svg3963"
   inkscape:export-filename="\\wsl$\Ubuntu\home\derek\projects\OTrainMap\src\images\line2.png"
   inkscape:export-xdpi="48.000004"
   inkscape:export-ydpi="48.000004"
   inkscape:version="1.2 (dc2aedaf03, 2022-05-15)"
   sodipodi:docname="route506.svg"
   xmlns:inkscape="http://www.inkscape.org/namespaces/inkscape"
   xmlns:sodipodi="http://sodipodi.sourceforge.net/DTD/sodipodi-0.dtd"
   xmlns="http://www.w3.org/2000/svg"
   xmlns:svg="http://www.w3.org/2000/svg"
   xmlns:rdf="http://www.w3.org/1999/02/22-rdf-syntax-ns#"
   xmlns:cc="http://creativecommons.org/ns#"
   xmlns:dc="http://purl.org/dc/elements/1.1/">
  <defs
     id="defs3957" />
  <sodipodi:namedview
     id="base"
     pagecolor="#ffffff"
     bordercolor="#666666"
     borderopacity="1.0"
     inkscape:pageopacity="0.0"
     inkscape:pageshadow="2"
     inkscape:zoom="7.9195959"
     inkscape:cx="4.2931483"
     inkscape:cy="24.875007"
     inkscape:document-units="mm"
     inkscape:current-layer="g4534"
     inkscape:document-rotation="0"
     showgrid="false"
     units="px"
     lock-margins="true"
     fit-margin-top="2"
     fit-margin-left="2"
     fit-margin-right="2"
     fit-margin-bottom="2"
     inkscape:window-width="973"
     inkscape:window-height="1027"
     inkscape:window-x="931"
     inkscape:window-y="0"
     inkscape:window-maximized="0"
     inkscape:pagecheckerboard="true"
     inkscape:snap-bbox="true"
     inkscape:snap-bbox-midpoints="true"
     inkscape:showpageshadow="2"
     inkscape:deskcolor="#d1d1d1" />
  <metadata
     id="metadata3960">
    <rdf:RDF>
      <cc:Work
         rdf:about="">
        <dc:format>image/svg+xml</dc:format>
        <dc:type
           rdf:resource="http://purl.org/dc/dcmitype/StillImage" />
      </cc:Work>
    </rdf:RDF>
  </metadata>
  <g
     inkscape:label="Layer 1"
     inkscape:groupmode="layer"
     id="layer1"
     transform="translate(-25.24881,-32.808334)"
     style="display:inline">
    <g
       id="g4534"
       transform="translate(18.294048,32.142151)"
       style="stroke-width:1.05833;stroke-miterlimit:4;stroke-dasharray:none">
      <ellipse
         style="fill:#ff0000;fill-opacity:1;stroke:#ffffff;stroke-width:1.05829;stroke-miterlimit:4;stroke-dasharray:none;paint-order:stroke fill markers"
         id="path3313-5"
         cx="11.187928"
         cy="4.8993511"
         rx="3.1748571"
         ry="3.1748593" />
      <g
         aria-label="506"
         id="text3884-2"
         style="font-size:2.82222px;line-height:1.25;letter-spacing:0px;word-spacing:0px;fill:#ffffff">
        <path
           d="m 8.8700694,4.9145095 0.3059242,0.075792 q 0.022049,-0.022049 0.046853,-0.041341 0.024805,-0.02067 0.056499,-0.035829 0.031695,-0.015158 0.073036,-0.024805 0.041341,-0.00965 0.097841,-0.00965 0.08406,0 0.146072,0.026183 0.062012,0.026183 0.1033527,0.074414 0.041341,0.048231 0.060634,0.1157552 0.02067,0.066146 0.02067,0.1460719 0,0.081304 -0.016536,0.1515841 -0.015158,0.07028 -0.048231,0.1212673 -0.034451,0.050987 -0.089572,0.079926 -0.053743,0.028939 -0.1309136,0.028939 -0.1254013,0 -0.2067055,-0.071658 -0.079926,-0.071658 -0.093707,-0.2025715 H 8.817704 q 0.00413,0.1391818 0.062012,0.2480467 0.059256,0.1074869 0.1529622,0.1819009 0.093706,0.074414 0.2135957,0.112999 0.1212673,0.038585 0.2508028,0.038585 0.1708766,0 0.296278,-0.053743 0.1254014,-0.053743 0.2080837,-0.1460719 0.08268,-0.092329 0.122645,-0.2135958 0.03996,-0.1212672 0.03996,-0.2563149 0,-0.1584742 -0.04134,-0.2838756 -0.04134,-0.1254014 -0.118511,-0.2122177 -0.078548,-0.086816 -0.1929252,-0.1322916 -0.1129991,-0.046853 -0.257693,-0.046853 -0.1019747,0 -0.1805229,0.026183 -0.078548,0.026183 -0.1212672,0.050987 L 9.300017,4.2213568 H 10.0979 V 3.89614 H 8.9844465 Z"
           style="font-weight:bold;font-family:'Roboto Mono';-inkscape-font-specification:'Roboto Mono Bold';text-align:center;text-anchor:middle"
           id="path826" />
        <path
           d="m 11.850764,5.1391296 v -0.479557 q 0,-0.1943032 -0.04547,-0.3417532 -0.04548,-0.148828 -0.129536,-0.2494247 -0.08544,-0.099219 -0.206706,-0.1502061 -0.121267,-0.050987 -0.272851,-0.050987 -0.150206,0 -0.271473,0.050987 -0.119889,0.050987 -0.20395,0.1502061 -0.08544,0.1005967 -0.130913,0.2494247 -0.04547,0.14745 -0.04547,0.3417532 v 0.479557 q 0,0.1943032 0.04547,0.3431312 0.04685,0.14745 0.132291,0.2466687 0.08406,0.1005967 0.205328,0.151584 0.121267,0.050987 0.271473,0.050987 0.151584,0 0.272852,-0.050987 0.121267,-0.050987 0.205327,-0.151584 0.08406,-0.099219 0.128158,-0.2466687 0.04547,-0.148828 0.04547,-0.3431312 z M 10.930235,4.9737651 q 0,-0.042719 0,-0.064768 0,-0.022049 0,-0.088194 V 4.598939 q 0,-0.111621 0.01654,-0.1929252 0.01792,-0.081304 0.05374,-0.1322916 0.03307,-0.048231 0.0813,-0.071658 0.04961,-0.024805 0.114377,-0.024805 0.05788,0 0.103353,0.019292 0.04685,0.017914 0.07855,0.0565 0.04134,0.048231 0.06201,0.1295355 0.02205,0.079926 0.0248,0.1929252 z m 0.534678,0.223242 q 0,0.111621 -0.01791,0.1943033 -0.01654,0.081304 -0.05099,0.1336696 -0.03307,0.049609 -0.08268,0.074414 -0.04961,0.023427 -0.114377,0.023427 -0.07028,0 -0.121267,-0.027561 -0.05099,-0.027561 -0.08406,-0.08406 -0.02894,-0.046853 -0.04548,-0.1171332 -0.01516,-0.07028 -0.01791,-0.1612303 l 0.534678,-0.3968747 q 0,0.039963 0,0.062012 0,0.020671 0,0.066146 z"
           style="font-weight:bold;font-family:'Roboto Mono';-inkscape-font-specification:'Roboto Mono Bold';text-align:center;text-anchor:middle"
           id="path828" />
        <path
           d="m 13.254984,3.8796036 h -0.05099 q -0.249424,0 -0.439594,0.08406 -0.190169,0.082682 -0.318326,0.2301322 -0.128158,0.148828 -0.192925,0.3527775 -0.06477,0.2025714 -0.06477,0.4409719 v 0.1474499 q 0,0.1722547 0.04823,0.3183266 0.04961,0.1446939 0.14056,0.2508028 0.08957,0.1061089 0.219108,0.1667425 0.129535,0.059256 0.290766,0.059256 0.15434,0 0.278363,-0.052365 0.124024,-0.053744 0.21084,-0.146072 0.08682,-0.092328 0.13367,-0.2177298 0.04685,-0.1254014 0.04685,-0.2714734 0,-0.1364256 -0.03583,-0.2590709 -0.03445,-0.1240234 -0.106109,-0.2177299 -0.07166,-0.092329 -0.179145,-0.1460719 -0.106109,-0.055122 -0.249425,-0.055122 -0.07028,0 -0.130913,0.016536 -0.06063,0.016536 -0.111621,0.042719 -0.05237,0.027561 -0.09371,0.062012 -0.04134,0.033073 -0.07304,0.067524 0.0124,-0.1254014 0.05926,-0.2273762 0.04823,-0.1019747 0.130914,-0.1750107 0.0813,-0.073036 0.197059,-0.112999 0.117133,-0.039963 0.268717,-0.039963 h 0.02205 z m -0.380339,0.9921868 q 0.07166,0 0.12678,0.028939 0.0565,0.027561 0.09508,0.07717 0.03859,0.050987 0.05926,0.1198892 0.02067,0.068902 0.02067,0.1502061 0,0.081304 -0.02067,0.150206 -0.02067,0.067524 -0.05926,0.1171332 -0.03858,0.049609 -0.09371,0.078548 -0.05512,0.027561 -0.122645,0.027561 -0.06615,0 -0.122646,-0.027561 -0.0565,-0.027561 -0.09784,-0.082682 -0.04134,-0.053744 -0.06477,-0.1364257 -0.02205,-0.082682 -0.02205,-0.1929252 v -0.112999 q 0.01929,-0.041341 0.04685,-0.075792 0.02894,-0.034451 0.06339,-0.060634 0.03996,-0.028939 0.0882,-0.044097 0.04823,-0.016536 0.103352,-0.016536 z"
           style="font-weight:bold;font-family:'Roboto Mono';-inkscape-font-specification:'Roboto Mono Bold';text-align:center;text-anchor:middle"
           id="path830" />
      </g>
    </g>
  </g>
</svg>
