<?xml version="1.0" encoding="UTF-8" standalone="no"?>
<svg
   width="32"
   height="32"
   viewBox="0 0 8.4666665 8.4666669"
   version="1.1"
   id="svg3963"
   inkscape:export-filename="\\wsl$\Ubuntu\home\derek\projects\OTrainMap\src\images\line2.png"
   inkscape:export-xdpi="48.000004"
   inkscape:export-ydpi="48.000004"
   inkscape:version="1.2-beta (1b65182ce9, 2022-04-05)"
   sodipodi:docname="route501.svg"
   xmlns:inkscape="http://www.inkscape.org/namespaces/inkscape"
   xmlns:sodipodi="http://sodipodi.sourceforge.net/DTD/sodipodi-0.dtd"
   xmlns="http://www.w3.org/2000/svg"
   xmlns:svg="http://www.w3.org/2000/svg"
   xmlns:rdf="http://www.w3.org/1999/02/22-rdf-syntax-ns#"
   xmlns:cc="http://creativecommons.org/ns#"
   xmlns:dc="http://purl.org/dc/elements/1.1/">
  <defs
     id="defs3957" />
  <sodipodi:namedview
     id="base"
     pagecolor="#ffffff"
     bordercolor="#666666"
     borderopacity="1.0"
     inkscape:pageopacity="0.0"
     inkscape:pageshadow="2"
     inkscape:zoom="11.2"
     inkscape:cx="5.3125"
     inkscape:cy="13.482143"
     inkscape:document-units="mm"
     inkscape:current-layer="g4534"
     inkscape:document-rotation="0"
     showgrid="false"
     units="px"
     lock-margins="true"
     fit-margin-top="2"
     fit-margin-left="2"
     fit-margin-right="2"
     fit-margin-bottom="2"
     inkscape:window-width="1920"
     inkscape:window-height="1017"
     inkscape:window-x="-8"
     inkscape:window-y="-8"
     inkscape:window-maximized="1"
     inkscape:pagecheckerboard="true"
     inkscape:snap-bbox="true"
     inkscape:snap-bbox-midpoints="true"
     inkscape:deskcolor="#d1d1d1" />
  <metadata
     id="metadata3960">
    <rdf:RDF>
      <cc:Work
         rdf:about="">
        <dc:format>image/svg+xml</dc:format>
        <dc:type
           rdf:resource="http://purl.org/dc/dcmitype/StillImage" />
      </cc:Work>
    </rdf:RDF>
  </metadata>
  <g
     inkscape:label="Layer 1"
     inkscape:groupmode="layer"
     id="layer1"
     transform="translate(-25.24881,-32.808334)"
     style="display:inline">
    <g
       id="g4534"
       transform="translate(18.294048,32.142151)"
       style="stroke-width:1.05833;stroke-miterlimit:4;stroke-dasharray:none">
      <ellipse
         style="fill:#ff0000;fill-opacity:1;stroke:#ffffff;stroke-width:1.05829;stroke-miterlimit:4;stroke-dasharray:none;paint-order:stroke fill markers"
         id="path3313-5"
         cx="11.187928"
         cy="4.8993511"
         rx="3.1748571"
         ry="3.1748593" />
      <g
         aria-label="501"
         id="text3884-2"
         style="font-size:3.175px;line-height:1.25;letter-spacing:0px;word-spacing:0px;fill:#ffffff">
        <path
           d="M 8.8074646,4.924156 8.9454407,3.7707381 H 10.26474 V 4.1769148 H 9.370221 l -0.05116,0.4480347 q 0.055811,-0.032556 0.1457275,-0.057361 0.091467,-0.024805 0.1782837,-0.024805 0.3364136,0 0.5162475,0.1999877 0.181384,0.1984375 0.181384,0.5581055 0,0.217041 -0.09767,0.3937744 -0.09612,0.1751831 -0.2713014,0.269751 -0.1751831,0.094568 -0.4139282,0.094568 -0.2123901,0 -0.3984253,-0.086817 Q 8.973346,5.8837873 8.8679261,5.7318586 8.7625061,5.5783796 8.7640564,5.3861433 h 0.5239991 q 0.00775,0.1240234 0.079065,0.1968872 0.071314,0.072864 0.1875854,0.072864 0.2635498,0 0.2635498,-0.3906738 0,-0.3612183 -0.3224609,-0.3612183 -0.1829346,0 -0.2728516,0.1178223 z"
           style="font-weight:900;font-family:Roboto;-inkscape-font-specification:'Roboto Heavy';text-align:center;text-anchor:middle"
           id="path403" />
        <path
           d="m 12.182452,5.1055403 q 0,0.4573364 -0.206189,0.7053833 -0.204638,0.2480469 -0.578259,0.2480469 -0.376721,0 -0.58291,-0.2495972 -0.206189,-0.2495972 -0.206189,-0.703833 V 4.6931624 q 0,-0.4573365 0.204639,-0.7053833 0.206189,-0.2480469 0.58136,-0.2480469 0.375171,0 0.581359,0.2495972 0.206189,0.2495971 0.206189,0.7053833 z M 11.660004,4.6264998 q 0,-0.243396 -0.06356,-0.3627686 -0.06356,-0.1209228 -0.201538,-0.1209228 -0.134876,0 -0.196888,0.1116211 -0.06046,0.1116211 -0.06511,0.3379638 v 0.576709 q 0,0.2526978 0.06356,0.37052 0.06356,0.116272 0.201538,0.116272 0.133325,0 0.196887,-0.1131714 0.06356,-0.1147217 0.06511,-0.3581177 z"
           style="font-weight:900;font-family:Roboto;-inkscape-font-specification:'Roboto Heavy';text-align:center;text-anchor:middle"
           id="path405" />
        <path
           d="M 13.611823,6.0279646 H 13.087824 V 4.3598494 l -0.514698,0.1503784 v -0.396875 l 0.990637,-0.3426147 h 0.04806 z"
           style="font-weight:900;font-family:Roboto;-inkscape-font-specification:'Roboto Heavy';text-align:center;text-anchor:middle"
           id="path407" />
      </g>
    </g>
  </g>
</svg>
