<?xml version="1.0" encoding="UTF-8"?>
<svg id="Layer_2" data-name="Layer 2" xmlns="http://www.w3.org/2000/svg" viewBox="0 0 90 90">
  <defs>
    <style>
      .cls-1 {
        fill: #0c0;
      }

      .cls-1, .cls-2, .cls-3, .cls-4 {
        stroke-width: 0px;
      }

      .cls-2 {
        fill: none;
      }

      .cls-3 {
        fill: #f2f2f2;
      }

      .cls-4 {
        opacity: .85;
      }
    </style>
  </defs>
  <g id="Layer_1-2" data-name="Layer 1">
    <g>
      <circle class="cls-1" cx="45" cy="45" r="40"/>
      <circle class="cls-4" cx="45" cy="45" r="35"/>
      <rect class="cls-2" width="90" height="90"/>
      <g>
        <path class="cls-3" d="m37.51,29.54v30.92h-8.39v-21.2h-.3c-.28.37-.69.73-1.23,1.09-.54.35-1.21.64-2.03.87s-1.78.34-2.9.34v-6.58c.87,0,1.68-.14,2.45-.43.77-.29,1.45-.68,2.05-1.19.59-.5,1.06-1.08,1.4-1.74.34-.65.51-1.35.51-2.08h8.46Z"/>
        <path class="cls-3" d="m43.85,60.46v-6.04l11.54-9.54c.76-.63,1.42-1.23,1.97-1.79.55-.56.97-1.13,1.27-1.73.3-.59.45-1.25.45-1.98,0-.79-.17-1.47-.51-2.04-.34-.56-.8-1-1.4-1.31-.59-.31-1.28-.46-2.05-.46s-1.46.16-2.05.47c-.59.31-1.04.77-1.37,1.38-.32.6-.48,1.34-.48,2.2h-7.97c0-2.17.49-4.05,1.46-5.62s2.36-2.78,4.14-3.62c1.78-.85,3.87-1.27,6.27-1.27s4.62.39,6.44,1.19c1.82.79,3.22,1.9,4.21,3.33.99,1.43,1.49,3.11,1.49,5.03,0,1.19-.25,2.37-.74,3.54s-1.38,2.47-2.66,3.89c-1.28,1.42-3.1,3.11-5.45,5.07l-2.9,2.42v.18h12.08v6.7h-23.74Z"/>
      </g>
    </g>
  </g>
</svg>