<?xml version="1.0" encoding="UTF-8"?>
<svg id="Layer_2" data-name="Layer 2" xmlns="http://www.w3.org/2000/svg" viewBox="0 0 90 90">
  <defs>
    <style>
      .cls-1 {
        fill: #dba300;
      }

      .cls-1, .cls-2, .cls-3, .cls-4 {
        stroke-width: 0px;
      }

      .cls-2 {
        fill: none;
      }

      .cls-3 {
        fill: #f2f2f2;
      }

      .cls-4 {
        opacity: .85;
      }
    </style>
  </defs>
  <g id="Layer_1-2" data-name="Layer 1">
    <g>
      <circle class="cls-1" cx="45" cy="45" r="40"/>
      <circle class="cls-4" cx="45" cy="45" r="35"/>
      <rect class="cls-2" width="90" height="90"/>
      <g>
        <path class="cls-3" d="m36.91,29.54v30.92h-8.39v-21.2h-.3c-.28.37-.69.73-1.23,1.09-.54.35-1.21.64-2.03.87s-1.78.34-2.9.34v-6.58c.87,0,1.68-.14,2.45-.43.77-.29,1.45-.68,2.05-1.19.59-.5,1.06-1.08,1.4-1.74.34-.65.51-1.35.51-2.08h8.46Z"/>
        <path class="cls-3" d="m42.76,51.04h8.46c.02.59.22,1.12.59,1.59.37.47.87.83,1.49,1.1s1.32.39,2.08.39c.81,0,1.5-.14,2.09-.43.59-.29,1.04-.68,1.36-1.17.32-.49.48-1.05.48-1.66,0-.67-.19-1.25-.57-1.73-.38-.48-.9-.84-1.56-1.1-.66-.25-1.42-.38-2.28-.38h-3.93v-5.56l6.28-5.68v-.18h-12.92v-6.7h22.89v6.04l-8.33,7.31v.24c1.83.22,3.35.62,4.55,1.21,1.2.58,2.15,1.28,2.84,2.08.69.8,1.18,1.65,1.47,2.54.29.9.44,1.77.44,2.63,0,1.87-.57,3.51-1.7,4.9-1.13,1.39-2.67,2.48-4.6,3.25-1.93.77-4.1,1.15-6.51,1.15-2.55,0-4.76-.42-6.64-1.27-1.88-.85-3.34-2.01-4.39-3.49-1.04-1.48-1.57-3.18-1.59-5.09Z"/>
      </g>
    </g>
  </g>
</svg>