<?xml version="1.0" encoding="UTF-8"?>
<svg id="Layer_2" data-name="Layer 2" xmlns="http://www.w3.org/2000/svg" viewBox="0 0 90 90">
  <defs>
    <style>
      .cls-1 {
        fill: none;
      }

      .cls-1, .cls-2, .cls-3, .cls-4 {
        stroke-width: 0px;
      }

      .cls-2 {
        fill: #39c6f4;
      }

      .cls-3 {
        fill: #f2f2f2;
      }

      .cls-4 {
        opacity: .85;
      }
    </style>
  </defs>
  <g id="Layer_1-2" data-name="Layer 1">
    <g>
      <circle class="cls-2" cx="45" cy="45" r="40"/>
      <circle class="cls-4" cx="45" cy="45" r="35"/>
      <rect class="cls-1" width="90" height="90"/>
      <g>
        <path class="cls-3" d="m36.33,29.54v30.92h-8.39v-21.2h-.3c-.28.37-.69.74-1.23,1.09-.54.35-1.21.64-2.03.87s-1.78.34-2.9.34v-6.58c.87,0,1.68-.14,2.45-.43.77-.29,1.45-.68,2.05-1.19.59-.5,1.06-1.08,1.4-1.74.34-.65.51-1.35.51-2.08h8.46Z"/>
        <path class="cls-3" d="m42.37,55.63v-6.52l12.44-19.57h5.92v8.7h-3.38l-6.7,10.63v.24h18.36v6.52h-26.63Zm15.04,4.83v-6.82l.18-2.84v-21.26h7.85v30.92h-8.03Z"/>
      </g>
    </g>
  </g>
</svg>