<?xml version="1.0" encoding="UTF-8"?>
<svg id="Layer_2" data-name="Layer 2" xmlns="http://www.w3.org/2000/svg" viewBox="0 0 90 90">
  <defs>
    <style>
      .cls-1 {
        fill: #ff4dff;
      }

      .cls-1, .cls-2, .cls-3, .cls-4 {
        stroke-width: 0px;
      }

      .cls-2 {
        fill: none;
      }

      .cls-3 {
        fill: #f2f2f2;
      }

      .cls-4 {
        opacity: .85;
      }
    </style>
  </defs>
  <g id="Layer_1-2" data-name="Layer 1">
    <g>
      <circle class="cls-1" cx="45" cy="45" r="40"/>
      <circle class="cls-4" cx="45" cy="45" r="35"/>
      <rect class="cls-2" width="90" height="90"/>
      <g>
        <path class="cls-3" d="m37.03,29.54v30.92h-8.39v-21.2h-.3c-.28.37-.69.74-1.23,1.09-.54.35-1.21.64-2.03.87s-1.78.34-2.9.34v-6.58c.87,0,1.68-.14,2.45-.43.77-.29,1.45-.68,2.05-1.19.59-.5,1.06-1.08,1.4-1.74.34-.65.51-1.35.51-2.08h8.46Z"/>
        <path class="cls-3" d="m55.75,60.88c-2.38,0-4.48-.42-6.32-1.26-1.84-.84-3.28-2-4.33-3.48s-1.59-3.18-1.61-5.1h8.15c.03,1.07.45,1.92,1.25,2.55.8.63,1.75.95,2.86.95.86,0,1.61-.18,2.27-.55.65-.37,1.17-.89,1.54-1.56.37-.67.55-1.46.54-2.36.01-.91-.17-1.69-.54-2.36-.37-.67-.89-1.19-1.54-1.56-.66-.37-1.41-.55-2.27-.55s-1.7.21-2.45.64-1.3,1.02-1.65,1.77l-7.37-1.45,1.21-17.03h20.78v6.7h-13.89l-.6,6.83h.18c.48-.94,1.32-1.71,2.51-2.33,1.19-.62,2.57-.93,4.14-.93,1.84,0,3.49.43,4.93,1.28s2.59,2.04,3.43,3.54c.84,1.5,1.26,3.24,1.25,5.2,0,2.15-.5,4.06-1.53,5.73-1.03,1.67-2.48,2.97-4.34,3.91s-4.05,1.41-6.57,1.41Z"/>
      </g>
    </g>
  </g>
</svg>