<?xml version="1.0" encoding="UTF-8"?>
<svg id="Layer_2" data-name="Layer 2" xmlns="http://www.w3.org/2000/svg" viewBox="0 0 90 90">
  <defs>
    <style>
      .cls-1 {
        fill: #0c0;
      }

      .cls-1, .cls-2, .cls-3, .cls-4 {
        stroke-width: 0px;
      }

      .cls-2 {
        fill: none;
      }

      .cls-3 {
        fill: #f2f2f2;
      }

      .cls-4 {
        opacity: .85;
      }
    </style>
  </defs>
  <g id="Layer_1-2" data-name="Layer 1">
    <g>
      <circle class="cls-1" cx="45" cy="45" r="40"/>
      <circle class="cls-4" cx="45" cy="45" r="35"/>
      <path class="cls-3" d="m29.42,65.62v-8.05l15.38-12.72c1.02-.85,1.9-1.64,2.63-2.39s1.3-1.51,1.69-2.3.59-1.67.59-2.64c0-1.06-.22-1.97-.67-2.72-.45-.75-1.07-1.33-1.86-1.74-.79-.41-1.71-.61-2.74-.61s-1.94.21-2.73.62-1.39,1.03-1.82,1.83c-.43.8-.64,1.79-.64,2.94h-10.63c0-2.9.65-5.4,1.95-7.49s3.14-3.71,5.52-4.83c2.38-1.13,5.16-1.69,8.36-1.69s6.16.53,8.59,1.58c2.42,1.05,4.29,2.53,5.62,4.44,1.32,1.91,1.98,4.14,1.98,6.7,0,1.58-.33,3.16-.99,4.72-.66,1.56-1.84,3.29-3.54,5.18-1.7,1.89-4.13,4.15-7.27,6.76l-3.87,3.22v.24h16.11v8.94h-31.65Z"/>
      <rect class="cls-2" width="90" height="90"/>
    </g>
  </g>
</svg>