<?xml version="1.0" encoding="UTF-8"?>
<svg id="Layer_2" data-name="Layer 2" xmlns="http://www.w3.org/2000/svg" viewBox="0 0 90 90">
  <defs>
    <style>
      .cls-1 {
        fill: none;
      }

      .cls-1, .cls-2, .cls-3, .cls-4 {
        stroke-width: 0px;
      }

      .cls-2 {
        fill: #c0f;
      }

      .cls-3 {
        fill: #f2f2f2;
      }

      .cls-4 {
        opacity: .85;
      }
    </style>
  </defs>
  <g id="Layer_1-2" data-name="Layer 1">
    <g>
      <circle class="cls-2" cx="45" cy="45" r="40"/>
      <circle class="cls-4" cx="45" cy="45" r="35"/>
      <path class="cls-3" d="m45.28,66.18c-3.17,0-5.98-.56-8.43-1.68s-4.38-2.67-5.78-4.64c-1.4-1.97-2.12-4.24-2.14-6.8h10.87c.04,1.42.59,2.56,1.66,3.4,1.07.85,2.34,1.27,3.82,1.27,1.14,0,2.15-.25,3.02-.74.87-.49,1.56-1.18,2.05-2.08.5-.9.74-1.95.72-3.14.01-1.21-.23-2.26-.72-3.15-.5-.89-1.18-1.58-2.05-2.07-.87-.49-1.88-.74-3.02-.74s-2.27.29-3.27.86-1.73,1.36-2.2,2.37l-9.82-1.93,1.61-22.71h27.7v8.94h-18.52l-.81,9.1h.24c.64-1.25,1.76-2.29,3.34-3.11,1.58-.83,3.42-1.24,5.52-1.24,2.46,0,4.65.57,6.57,1.71,1.93,1.14,3.45,2.71,4.57,4.72,1.12,2.01,1.67,4.32,1.66,6.94.01,2.87-.67,5.42-2.04,7.64-1.38,2.22-3.3,3.96-5.79,5.21s-5.4,1.88-8.76,1.88Z"/>
      <rect class="cls-1" width="90" height="90"/>
    </g>
  </g>
</svg>