<?xml version="1.0" encoding="UTF-8"?>
<svg id="Layer_2" data-name="Layer 2" xmlns="http://www.w3.org/2000/svg" viewBox="0 0 90 90">
  <defs>
    <style>
      .cls-1 {
        fill: none;
      }

      .cls-1, .cls-2, .cls-3, .cls-4 {
        stroke-width: 0px;
      }

      .cls-2 {
        fill: #ff99e9;
      }

      .cls-3 {
        fill: #f2f2f2;
      }

      .cls-4 {
        opacity: .85;
      }
    </style>
  </defs>
  <g id="Layer_1-2" data-name="Layer 1">
    <g>
      <circle class="cls-2" cx="45" cy="45" r="40"/>
      <circle class="cls-4" cx="45" cy="45" r="35"/>
      <path class="cls-3" d="m45,66.18c-3.33,0-6.3-.52-8.91-1.55s-4.66-2.44-6.16-4.21c-1.5-1.77-2.25-3.77-2.25-6,0-1.7.43-3.26,1.28-4.67s2-2.58,3.45-3.51c1.45-.93,3.07-1.53,4.85-1.8v-.32c-2.35-.4-4.28-1.45-5.79-3.13s-2.26-3.67-2.26-5.97c0-2.16.68-4.08,2.05-5.77,1.37-1.68,3.24-3.01,5.62-3.98,2.38-.97,5.08-1.45,8.11-1.45s5.74.49,8.11,1.46c2.38.97,4.25,2.3,5.62,3.99s2.05,3.6,2.05,5.75c0,2.31-.76,4.3-2.29,5.98-1.53,1.68-3.45,2.72-5.76,3.12v.32c1.77.27,3.38.87,4.83,1.8,1.45.93,2.6,2.1,3.46,3.51.86,1.41,1.29,2.97,1.29,4.67,0,2.23-.75,4.23-2.25,6-1.5,1.77-3.55,3.17-6.16,4.21s-5.58,1.55-8.91,1.55Zm0-7.73c1.06,0,2-.21,2.82-.64.82-.43,1.47-1.02,1.94-1.78.48-.76.71-1.61.71-2.57s-.24-1.8-.71-2.54-1.12-1.32-1.94-1.74c-.82-.42-1.76-.63-2.82-.63s-1.98.21-2.81.63c-.83.42-1.48,1-1.95,1.74-.48.74-.71,1.58-.71,2.54s.24,1.81.71,2.56c.48.75,1.13,1.35,1.95,1.78.83.44,1.76.65,2.81.65Zm0-17.64c.94,0,1.77-.19,2.5-.58.72-.39,1.29-.93,1.71-1.61s.62-1.46.62-2.32-.21-1.62-.62-2.29-.99-1.19-1.71-1.57-1.56-.57-2.5-.57-1.75.19-2.49.57-1.3.91-1.72,1.57-.62,1.43-.62,2.29.21,1.63.62,2.3c.42.68.99,1.21,1.72,1.61.73.4,1.56.59,2.49.59Z"/>
      <rect class="cls-1" width="90" height="90"/>
    </g>
  </g>
</svg>