<?xml version="1.0" encoding="UTF-8"?>
<svg id="Layer_2" data-name="Layer 2" xmlns="http://www.w3.org/2000/svg" viewBox="0 0 90 90">
  <defs>
    <style>
      .cls-1 {
        fill: none;
      }

      .cls-1, .cls-2, .cls-3, .cls-4 {
        stroke-width: 0px;
      }

      .cls-2 {
        fill: #dee600;
      }

      .cls-3 {
        fill: #f2f2f2;
      }

      .cls-4 {
        opacity: .85;
      }
    </style>
  </defs>
  <g id="Layer_1-2" data-name="Layer 1">
    <g>
      <circle class="cls-2" cx="45" cy="45" r="40"/>
      <circle class="cls-4" cx="45" cy="45" r="35"/>
      <rect class="cls-1" width="90" height="90"/>
      <path class="cls-3" d="m28.25,38.56c0-3.01.69-5.61,2.06-7.82s3.27-3.91,5.68-5.11c2.41-1.2,5.17-1.8,8.28-1.8,2.87,0,5.56.52,8.07,1.56s4.54,2.61,6.1,4.71c1.56,2.1,2.34,4.73,2.34,7.9,0,1.56-.2,3.07-.6,4.54-.4,1.47-.97,2.92-1.69,4.35-.73,1.43-1.57,2.87-2.54,4.32l-9.74,14.42h-10.95l9.42-13.93c-.52.12-1.07.22-1.63.29-.56.07-1.15.11-1.75.11-2.58,0-4.85-.56-6.8-1.69-1.96-1.13-3.49-2.7-4.59-4.73-1.1-2.03-1.65-4.4-1.65-7.11Zm10.79-.48c0,1.13.22,2.13.67,3,.45.87,1.07,1.56,1.87,2.05.8.5,1.72.74,2.77.74s1.98-.25,2.79-.74c.81-.5,1.45-1.18,1.91-2.05s.69-1.87.69-3-.23-2.13-.69-3c-.46-.87-1.1-1.56-1.91-2.05-.81-.5-1.74-.75-2.79-.75s-1.97.25-2.77.75c-.8.5-1.42,1.18-1.87,2.05-.45.87-.67,1.87-.67,3Z"/>
    </g>
  </g>
</svg>