<?xml version="1.0" encoding="UTF-8"?>
<svg id="Layer_2" data-name="Layer 2" xmlns="http://www.w3.org/2000/svg" viewBox="0 0 90 90">
  <defs>
    <style>
      .cls-1 {
        fill: #233e96;
      }

      .cls-1, .cls-2, .cls-3 {
        stroke-width: 0px;
      }

      .cls-2 {
        fill: none;
      }

      .cls-3 {
        fill: #f2f2f2;
      }
    </style>
  </defs>
  <g id="Layer_1-2" data-name="Layer 1">
    <g>
      <circle class="cls-3" cx="45" cy="45" r="40"/>
      <circle class="cls-1" cx="45" cy="45" r="35"/>
      <path class="cls-3" d="m29.87,65.62V24.38h17.88c3.14,0,5.78.42,7.92,1.27s3.76,2.04,4.85,3.58c1.09,1.54,1.64,3.36,1.64,5.46,0,1.52-.33,2.9-1,4.15-.66,1.25-1.59,2.29-2.79,3.13s-2.59,1.42-4.19,1.74v.4c1.77.07,3.38.51,4.83,1.34,1.45.83,2.6,1.96,3.46,3.4.86,1.44,1.29,3.14,1.29,5.08,0,2.25-.59,4.26-1.76,6.02s-2.84,3.14-5,4.15-4.74,1.51-7.73,1.51h-19.41Zm11.19-24.56h4.59c.98,0,1.84-.15,2.6-.46s1.34-.76,1.76-1.34c.42-.58.63-1.3.63-2.14,0-1.28-.46-2.25-1.37-2.93-.91-.68-2.07-1.02-3.46-1.02h-4.75v7.89Zm0,15.62h5.23c1.88,0,3.29-.35,4.23-1.06.94-.71,1.41-1.75,1.41-3.13,0-.97-.22-1.79-.66-2.46-.44-.67-1.07-1.18-1.88-1.53-.81-.35-1.79-.52-2.93-.52h-5.4v8.7Z"/>
      <rect class="cls-2" width="90" height="90"/>
    </g>
  </g>
</svg>