<?xml version="1.0" encoding="UTF-8"?>
<svg id="Layer_2" data-name="Layer 2" xmlns="http://www.w3.org/2000/svg" viewBox="0 0 90.71 90.71">
  <defs>
    <style>
      .cls-1 {
        fill: red;
      }

      .cls-1, .cls-2, .cls-3 {
        stroke-width: 0px;
      }

      .cls-2 {
        fill: #f2f2f2;
      }

      .cls-3 {
        opacity: .85;
      }
    </style>
  </defs>
  <g id="Layer_1-2" data-name="Layer 1">
    <g>
      <rect class="cls-1" x="10.36" y="10.36" width="70" height="70" rx="10" ry="10" transform="translate(-18.79 45.36) rotate(-45)"/>
      <rect class="cls-3" x="15.36" y="15.36" width="60" height="60" rx="8.57" ry="8.57" transform="translate(-18.79 45.36) rotate(-45)"/>
      <g>
        <path class="cls-2" d="m24.72,56.69v-22.68h9.83c1.73,0,3.18.23,4.36.7s2.07,1.12,2.67,1.97.9,1.85.9,3c0,.83-.18,1.6-.55,2.28-.37.69-.88,1.26-1.53,1.72s-1.42.78-2.3.96v.22c.97.04,1.86.28,2.66.74.8.46,1.43,1.08,1.9,1.87.47.79.71,1.72.71,2.79,0,1.24-.32,2.34-.97,3.31-.65.97-1.56,1.73-2.75,2.28-1.19.55-2.61.83-4.25.83h-10.67Zm6.16-13.51h2.52c.54,0,1.01-.09,1.43-.26.41-.17.74-.41.97-.74.23-.32.35-.71.35-1.18,0-.7-.25-1.24-.75-1.61s-1.14-.56-1.9-.56h-2.61v4.34Zm0,8.59h2.88c1.03,0,1.81-.19,2.33-.58.52-.39.78-.96.78-1.72,0-.53-.12-.98-.37-1.35-.24-.37-.59-.65-1.04-.84-.45-.19-.98-.29-1.61-.29h-2.97v4.78Z"/>
        <path class="cls-2" d="m45.53,56.69v-22.68h6.16v8.86h8.15v-8.86h6.16v22.68h-6.16v-8.86h-8.15v8.86h-6.16Z"/>
      </g>
    </g>
  </g>
</svg>