<?xml version="1.0" encoding="UTF-8"?>
<svg id="Layer_2" data-name="Layer 2" xmlns="http://www.w3.org/2000/svg" viewBox="0 0 90 90">
  <defs>
    <style>
      .cls-1 {
        fill: maroon;
      }

      .cls-1, .cls-2, .cls-3 {
        stroke-width: 0px;
      }

      .cls-2 {
        fill: none;
      }

      .cls-3 {
        fill: #f2f2f2;
      }
    </style>
  </defs>
  <g id="Layer_1-2" data-name="Layer 1">
    <g>
      <circle class="cls-3" cx="45" cy="45" r="40"/>
      <circle class="cls-1" cx="45" cy="45" r="35"/>
      <path class="cls-3" d="m64.37,39.85h-11.35c-.08-.94-.29-1.79-.63-2.56-.34-.77-.81-1.43-1.41-1.98-.6-.56-1.32-.99-2.17-1.29-.84-.3-1.8-.45-2.88-.45-1.88,0-3.47.46-4.76,1.37-1.3.91-2.28,2.22-2.94,3.93s-1,3.75-1,6.14c0,2.52.34,4.63,1.02,6.33.68,1.7,1.66,2.97,2.95,3.83,1.29.85,2.84,1.28,4.65,1.28,1.03,0,1.96-.13,2.78-.39.82-.26,1.53-.64,2.13-1.14.6-.5,1.1-1.1,1.48-1.8.38-.71.64-1.5.78-2.39l11.35.08c-.13,1.75-.62,3.52-1.47,5.33s-2.04,3.47-3.59,4.99c-1.55,1.52-3.47,2.75-5.75,3.67-2.28.93-4.93,1.39-7.95,1.39-3.79,0-7.18-.81-10.18-2.44-3-1.62-5.37-4.01-7.11-7.17s-2.61-7.01-2.61-11.58.89-8.46,2.66-11.61c1.77-3.15,4.16-5.53,7.17-7.15,3.01-1.62,6.36-2.43,10.07-2.43,2.6,0,5,.36,7.19,1.07,2.19.71,4.11,1.75,5.76,3.11,1.65,1.36,2.98,3.04,3.99,5.02s1.62,4.26,1.83,6.82Z"/>
      <rect class="cls-2" width="90" height="90"/>
    </g>
  </g>
</svg>