<?xml version="1.0" encoding="UTF-8"?>
<svg id="Layer_2" data-name="Layer 2" xmlns="http://www.w3.org/2000/svg" viewBox="0 0 90.71 90.71">
  <defs>
    <style>
      .cls-1 {
        fill: #8aff80;
      }

      .cls-1, .cls-2, .cls-3 {
        stroke-width: 0px;
      }

      .cls-2 {
        fill: #f2f2f2;
      }

      .cls-3 {
        opacity: .85;
      }
    </style>
  </defs>
  <g id="Layer_1-2" data-name="Layer 1">
    <g>
      <rect class="cls-1" x="10.36" y="10.36" width="70" height="70" rx="10" ry="10" transform="translate(-18.79 45.36) rotate(-45)"/>
      <rect class="cls-3" x="15.36" y="15.36" width="60" height="60" rx="8.57" ry="8.57" transform="translate(-18.79 45.36) rotate(-45)"/>
      <g>
        <path class="cls-2" d="m25.73,56.69v-22.68h15.94v4.96h-9.79v3.9h8.81v4.96h-8.81v8.86h-6.16Z"/>
        <path class="cls-2" d="m65.11,42.52h-6.25c-.04-.52-.16-.99-.35-1.41-.19-.42-.45-.78-.78-1.09s-.72-.54-1.19-.71c-.46-.17-.99-.25-1.58-.25-1.03,0-1.91.25-2.62.75-.71.5-1.25,1.22-1.62,2.16s-.55,2.06-.55,3.38c0,1.39.19,2.55.56,3.48.37.93.91,1.64,1.62,2.1.71.47,1.56.7,2.56.7.57,0,1.08-.07,1.53-.22.45-.14.84-.35,1.17-.63s.6-.6.81-.99c.21-.39.35-.83.43-1.31l6.25.04c-.07.96-.34,1.94-.81,2.93-.46.99-1.12,1.91-1.98,2.75s-1.91,1.51-3.16,2.02c-1.25.51-2.71.76-4.37.76-2.08,0-3.95-.45-5.6-1.34-1.65-.89-2.95-2.21-3.91-3.94s-1.43-3.86-1.43-6.37.49-4.65,1.46-6.38c.97-1.73,2.29-3.04,3.94-3.93,1.65-.89,3.5-1.33,5.54-1.33,1.43,0,2.75.2,3.95.59s2.26.96,3.17,1.71,1.64,1.67,2.19,2.76.89,2.34,1.01,3.75Z"/>
      </g>
    </g>
  </g>
</svg>