<?xml version="1.0" encoding="UTF-8"?>
<svg id="Layer_2" data-name="Layer 2" xmlns="http://www.w3.org/2000/svg" viewBox="0 0 90 90">
  <defs>
    <style>
      .cls-1 {
        fill: none;
      }

      .cls-1, .cls-2, .cls-3 {
        stroke-width: 0px;
      }

      .cls-2 {
        fill: #00d05d;
      }

      .cls-3 {
        fill: #f2f2f2;
      }
    </style>
  </defs>
  <g id="Layer_1-2" data-name="Layer 1">
    <g>
      <circle class="cls-3" cx="45" cy="45" r="40"/>
      <circle class="cls-2" cx="45" cy="45" r="35"/>
      <path class="cls-3" d="m52.53,39.13c-.17-.71-.45-1.34-.83-1.88-.38-.54-.84-1.01-1.4-1.39s-1.2-.67-1.93-.87c-.73-.2-1.53-.29-2.41-.29-1.88,0-3.48.45-4.8,1.35-1.32.9-2.33,2.19-3.02,3.88-.69,1.69-1.04,3.73-1.04,6.12s.33,4.48.99,6.2c.66,1.72,1.64,3.03,2.94,3.95,1.3.91,2.92,1.37,4.85,1.37,1.7,0,3.12-.25,4.26-.75s1.98-1.2,2.55-2.11c.56-.91.85-1.99.85-3.22l1.93.2h-9.42v-7.97h18.28v5.72c0,3.76-.8,6.97-2.39,9.63-1.59,2.66-3.78,4.7-6.56,6.12s-5.98,2.12-9.57,2.12c-4.01,0-7.54-.85-10.57-2.56-3.03-1.71-5.4-4.13-7.1-7.29-1.7-3.15-2.55-6.9-2.55-11.25,0-3.41.52-6.43,1.56-9.06s2.49-4.86,4.34-6.67c1.85-1.82,3.99-3.2,6.42-4.13,2.43-.93,5.03-1.4,7.81-1.4,2.44,0,4.71.35,6.81,1.04s3.96,1.67,5.58,2.94c1.62,1.27,2.92,2.77,3.92,4.5.99,1.73,1.6,3.63,1.81,5.7h-11.31Z"/>
      <rect class="cls-1" width="90" height="90"/>
    </g>
  </g>
</svg>