<?xml version="1.0" encoding="UTF-8"?>
<svg id="Layer_2" data-name="Layer 2" xmlns="http://www.w3.org/2000/svg" viewBox="0 0 180 100">
  <defs>
    <style>
      .cls-1 {
        fill: none;
      }

      .cls-1, .cls-2, .cls-3 {
        stroke-width: 0px;
      }

      .cls-2 {
        fill: #fff;
      }

      .cls-3 {
        fill: #ba0000;
      }
    </style>
  </defs>
  <g id="Layer_1-2" data-name="Layer 1">
    <g>
      <rect class="cls-1" width="180" height="100"/>
      <rect class="cls-3" x="10" y="10" width="160" height="80"/>
      <g>
        <path class="cls-2" d="m57.43,77.3c-11.97-.73-24.99-11.29-24.92-27.42.07-16.11,13.15-26.48,24.92-27.18v54.6Z"/>
        <path class="cls-2" d="m62.56,52.55h24.93v24.92h-24.93v-24.92Z"/>
        <path class="cls-2" d="m62.56,22.7c12.69.81,23.92,11.8,24.77,24.74h-24.77v-24.74Z"/>
        <g>
          <path class="cls-2" d="m109.42,47.44c1.16-4.83,5.5-8.44,10.69-8.44s9.53,3.61,10.69,8.44h16.69c-1.29-13.99-13.05-24.94-27.38-24.94s-26.08,10.95-27.38,24.94h16.69Z"/>
          <path class="cls-2" d="m130.79,52.55c-1.16,4.84-5.5,8.45-10.69,8.45s-9.53-3.61-10.69-8.45h-16.69c1.29,13.99,13.05,24.95,27.38,24.95s26.09-10.96,27.38-24.95h-16.69Z"/>
        </g>
      </g>
    </g>
  </g>
</svg>