<?xml version="1.0" encoding="UTF-8"?>
<svg id="Layer_2" data-name="Layer 2" xmlns="http://www.w3.org/2000/svg" viewBox="0 0 90 90">
  <defs>
    <style>
      .cls-1, .cls-2, .cls-3, .cls-4 {
        stroke-width: 0px;
      }

      .cls-2 {
        fill: none;
      }

      .cls-3, .cls-5 {
        opacity: .75;
      }

      .cls-4 {
        fill: #a5a8ff;
      }
    </style>
  </defs>
  <g id="Layer_1-2" data-name="Layer 1">
    <g>
      <circle class="cls-3" cx="45" cy="45" r="40"/>
      <circle class="cls-4" cx="45" cy="45" r="35"/>
      <g class="cls-5">
        <path class="cls-1" d="m47.98,25.52h11.03v28.27c-.01,2.68-.69,5.04-2.02,7.08-1.33,2.03-3.17,3.62-5.52,4.75-2.34,1.13-5.04,1.7-8.08,1.7-2.64,0-5.06-.46-7.25-1.38-2.19-.92-3.93-2.37-5.23-4.35-1.3-1.98-1.95-4.55-1.93-7.72h11.19c.04,1.03.22,1.91.53,2.62.32.71.76,1.25,1.33,1.6s1.26.53,2.08.53,1.53-.18,2.1-.54,1-.9,1.3-1.62c.29-.72.45-1.61.46-2.67v-28.27Z"/>
      </g>
      <rect class="cls-2" width="90" height="90"/>
    </g>
  </g>
</svg>