<?xml version="1.0" encoding="UTF-8"?>
<svg id="Layer_2" data-name="Layer 2" xmlns="http://www.w3.org/2000/svg" viewBox="0 0 90 90">
  <defs>
    <style>
      .cls-1, .cls-2, .cls-3 {
        stroke-width: 0px;
      }

      .cls-2 {
        fill: none;
      }

      .cls-4 {
        opacity: .75;
      }

      .cls-3 {
        fill: #39c6f4;
      }
    </style>
  </defs>
  <g id="Layer_1-2" data-name="Layer 1">
    <g>
      <g class="cls-4">
        <circle class="cls-1" cx="45" cy="45" r="40"/>
      </g>
      <circle class="cls-3" cx="45" cy="45" r="35"/>
      <g class="cls-4">
        <path class="cls-1" d="m30.19,66.75V25.52h17.8c3.06,0,5.74.6,8.03,1.81s4.08,2.91,5.36,5.09c1.27,2.19,1.91,4.75,1.91,7.67s-.65,5.51-1.96,7.67c-1.31,2.16-3.14,3.83-5.5,4.99-2.36,1.17-5.1,1.75-8.24,1.75h-10.63v-8.7h8.38c1.32,0,2.44-.23,3.37-.69.93-.46,1.65-1.12,2.15-1.98.5-.86.75-1.87.75-3.04s-.25-2.19-.75-3.03-1.22-1.48-2.15-1.93c-.93-.45-2.06-.67-3.37-.67h-3.95v32.29h-11.19Z"/>
      </g>
      <rect class="cls-2" width="90" height="90"/>
    </g>
  </g>
</svg>