<?xml version="1.0" encoding="UTF-8"?>
<svg id="Layer_2" data-name="Layer 2" xmlns="http://www.w3.org/2000/svg" viewBox="0 0 90 90">
  <defs>
    <style>
      .cls-1 {
        fill: none;
      }

      .cls-1, .cls-2, .cls-3 {
        stroke-width: 0px;
      }

      .cls-2 {
        fill: #ff9921;
      }

      .cls-3 {
        fill: #f2f2f2;
      }
    </style>
  </defs>
  <g id="Layer_1-2" data-name="Layer 1">
    <g>
      <circle class="cls-3" cx="45" cy="45" r="40"/>
      <circle class="cls-2" cx="45" cy="45" r="35"/>
      <path class="cls-3" d="m28.73,65.62V24.38h17.8c3.06,0,5.74.56,8.03,1.67,2.29,1.12,4.08,2.72,5.36,4.81,1.27,2.09,1.91,4.6,1.91,7.53s-.65,5.44-1.96,7.47c-1.31,2.03-3.14,3.56-5.5,4.59-2.36,1.03-5.1,1.55-8.24,1.55h-10.63v-8.7h8.38c1.32,0,2.44-.16,3.37-.49.93-.33,1.65-.86,2.15-1.58s.75-1.67.75-2.84-.25-2.14-.75-2.89c-.5-.75-1.22-1.3-2.15-1.65-.93-.36-2.06-.53-3.37-.53h-3.95v32.29h-11.19Zm24.16-18.92l10.31,18.92h-12.16l-10.07-18.92h11.92Z"/>
      <rect class="cls-1" width="90" height="90"/>
    </g>
  </g>
</svg>