<?xml version="1.0" encoding="UTF-8"?>
<svg id="Layer_2" data-name="Layer 2" xmlns="http://www.w3.org/2000/svg" viewBox="0 0 90.71 90.71">
  <defs>
    <style>
      .cls-1 {
        fill: #fcee21;
      }

      .cls-1, .cls-2, .cls-3 {
        stroke-width: 0px;
      }

      .cls-2 {
        fill: #f2f2f2;
      }

      .cls-3 {
        opacity: .85;
      }
    </style>
  </defs>
  <g id="Layer_1-2" data-name="Layer 1">
    <g>
      <rect class="cls-1" x="10.36" y="10.36" width="70" height="70" rx="10" ry="10" transform="translate(45.36 -18.79) rotate(45)"/>
      <rect class="cls-3" x="15.36" y="15.36" width="60" height="60" rx="8.57" ry="8.57" transform="translate(-18.79 45.36) rotate(-45)"/>
      <g>
        <path class="cls-2" d="m26,56.69v-22.68h9.79c1.68,0,3.16.31,4.42.92,1.26.61,2.24,1.49,2.95,2.65.7,1.15,1.05,2.53,1.05,4.14s-.36,2.99-1.08,4.11-1.73,1.96-3.02,2.52c-1.29.57-2.81.85-4.53.85h-5.85v-4.78h4.61c.72,0,1.34-.09,1.86-.27.51-.18.91-.47,1.18-.87.28-.4.42-.92.42-1.56s-.14-1.18-.42-1.59c-.28-.41-.67-.71-1.18-.91-.51-.2-1.13-.29-1.86-.29h-2.17v17.76h-6.16Zm13.29-10.41l5.67,10.41h-6.69l-5.54-10.41h6.55Z"/>
        <path class="cls-2" d="m46.82,56.69v-22.68h9.83c1.73,0,3.18.23,4.36.7s2.07,1.12,2.67,1.97c.6.85.9,1.85.9,3,0,.83-.18,1.59-.55,2.28-.37.69-.88,1.26-1.53,1.72s-1.42.78-2.3.96v.22c.97.04,1.86.28,2.66.74.8.45,1.43,1.08,1.9,1.87.47.79.71,1.73.71,2.8,0,1.24-.32,2.34-.97,3.31-.65.97-1.56,1.73-2.75,2.28s-2.61.83-4.25.83h-10.67Zm6.16-13.51h2.52c.54,0,1.01-.08,1.43-.25.41-.17.74-.42.97-.74s.35-.71.35-1.18c0-.7-.25-1.24-.75-1.61s-1.14-.56-1.9-.56h-2.61v4.34Zm0,8.59h2.88c1.03,0,1.81-.19,2.33-.58.52-.39.78-.96.78-1.72,0-.53-.12-.98-.37-1.35-.24-.37-.59-.65-1.04-.84-.45-.19-.98-.29-1.61-.29h-2.97v4.78Z"/>
      </g>
    </g>
  </g>
</svg>