<?xml version="1.0" encoding="UTF-8"?>
<svg id="Layer_2" data-name="Layer 2" xmlns="http://www.w3.org/2000/svg" viewBox="0 0 90 90">
  <defs>
    <style>
      .cls-1, .cls-2, .cls-3 {
        stroke-width: 0px;
      }

      .cls-2 {
        fill: none;
      }

      .cls-4 {
        opacity: .75;
      }

      .cls-3 {
        fill: #ff99e9;
      }
    </style>
  </defs>
  <g id="Layer_1-2" data-name="Layer 1">
    <g>
      <g class="cls-4">
        <circle class="cls-1" cx="45" cy="45" r="40"/>
      </g>
      <circle class="cls-3" cx="45" cy="45" r="35"/>
      <g class="cls-4">
        <path class="cls-1" d="m51,37.27c-.11-1.34-.61-2.39-1.5-3.14-.89-.75-2.25-1.13-4.06-1.13-1.15,0-2.1.14-2.83.41s-1.27.65-1.62,1.12c-.35.47-.53,1.01-.54,1.61-.03.5.06.94.27,1.34.21.4.54.75,1,1.07s1.04.6,1.75.86c.71.25,1.56.48,2.54.68l3.38.72c2.28.48,4.23,1.12,5.86,1.91,1.62.79,2.95,1.72,3.99,2.79,1.03,1.07,1.79,2.26,2.29,3.59.49,1.33.74,2.78.75,4.35-.01,2.71-.69,5.01-2.03,6.88-1.34,1.88-3.26,3.31-5.75,4.29-2.49.98-5.48,1.47-8.97,1.47s-6.71-.53-9.37-1.59-4.73-2.7-6.2-4.9c-1.47-2.21-2.21-5.04-2.22-8.49h10.63c.07,1.26.38,2.32.95,3.18.56.86,1.36,1.51,2.39,1.95,1.03.44,2.25.67,3.67.67,1.19,0,2.19-.15,3-.44.81-.29,1.42-.71,1.83-1.23s.63-1.12.64-1.79c-.01-.63-.22-1.18-.61-1.66s-1.04-.91-1.94-1.29c-.9-.38-2.11-.74-3.64-1.08l-4.11-.88c-3.65-.79-6.53-2.12-8.63-3.98s-3.14-4.4-3.13-7.62c-.01-2.62.69-4.91,2.1-6.88,1.42-1.96,3.38-3.5,5.9-4.6s5.41-1.65,8.67-1.65,6.21.56,8.64,1.67c2.43,1.12,4.3,2.68,5.63,4.7,1.32,2.02,1.99,4.38,2,7.08h-10.71Z"/>
      </g>
      <rect class="cls-2" width="90" height="90"/>
    </g>
  </g>
</svg>